<svg xmlns="http://www.w3.org/2000/svg" width="940" height="300"><radialGradient id="a" cx="470" cy="150" r="348.855" gradientTransform="matrix(1 0 0 2.467 0 -220)" gradientUnits="userSpaceOnUse"><stop offset="0" stop-color="#fff"/><stop offset="1" stop-color="#fff" stop-opacity="0"/></radialGradient><rect y="-220" fill="url(#a)" fill-opacity=".15" width="940" height="740"/><path opacity=".2" fill="#fff" d="M-317.2-122.3m-2.2-1.8 48-1.9l-47.8 3.9m1.8-2.2l43.9-3.5m48-1.9l-47.8 3.9m1.8-2.2l43.9-3.5m.1 2 1.8-2.2-91.7 7.4l3.7 45.9m-2.1-1.9l-3.4-41.9m3.5 43.9l-3.7-45.9 47.8-3.9 3.7 45.9-47.8 3.9zm-1.5-44l3.4 41.9 43.9-3.5-3.4-41.9-43.9 3.5zm47.4 40.3l-3.7-45.9 47.8-3.9 3.7 45.9-47.8 3.9zm-1.6-44l3.4 41.9 43.9-3.5-3.4-41.9-43.9 3.5zm93.3 36.7l-45.9 3.7-3.7-45.9m2.2 1.8l3.4 41.9 41.9-3.4m47.9-1.8l-47.8 3.8m1.8-2.1l43.9-3.5m48-1.9l-47.8 3.9m1.8-2.2l43.9-3.5m45.9-1.7l-45.9 3.7m1.9-2.2l41.9-3.4m48-1.8l-47.8 3.8m1.8-2.1l43.9-3.5m48-1.9l-47.8 3.9m1.7-2.2l43.9-3.5m46-1.7l-45.9 3.7m1.9-2.2l41.9-3.4m48-1.8l-47.9 3.8m1.9-2.1l43.9-3.5m45.9-1.8l-45.9 3.7m1.9-2.1l41.9-3.4m48-1.8l-47.8 3.8m1.8-2.2l43.9-3.5m47.9-1.8l-47.8 3.9m1.8-2.2l43.9-3.5m46-1.8l-45.9 3.7m1.9-2.1l41.9-3.4m47.9-1.9l-47.8 3.9m1.8-2.2 44-1.5-675.9 52.4l3.9 47.8m-2.2-1.8l-3.5-43.9m3.6 45.9l-3.9-47.8 47.8-3.9 3.9 47.8-47.8 3.9zm-1.7-46l3.5 43.9 43.9-3.5-3.5-43.9-43.9 3.5zm47.6 42.3l-3.9-47.8 47.8-3.8 3.9 47.8-47.8 3.8zm-1.7-46l3.5 43.9 43.9-3.5-3.5-43.9-43.9 3.5zm47.5 42.3l-3.9-47.8 45.9-3.7 3.9 47.8-45.9 3.7zm-1.7-46l3.5 43.9 41.9-3.4-3.5-43.9-41.9 3.4zm45.6 42.5l-3.9-47.8 47.8-3.8 3.9 47.8-47.8 3.8zm-1.7-46l3.5 43.9 43.9-3.5-3.5-43.9-43.9 3.5zm47.5 42.3l-3.9-47.8 47.8-3.9 3.9 47.8-47.8 3.9zm-1.7-46l3.5 43.9 43.9-3.5-3.5-43.9-43.9 3.5zm47.6 42.3l-3.9-47.8 45.9-3.7 3.9 47.8-45.9 3.7zm-1.7-46l3.5 43.9 41.9-3.4-3.5-43.9-41.9 3.4zm45.5 42.5l-3.9-47.8 47.8-3.8 4 47.7-47.9 3.9zm-1.7-46l3.5 43.9 43.9-3.5-3.5-43.9-43.9 3.5zm47.6 42.3l-3.9-47.8 47.8-3.9 3.9 47.8-47.8 3.9zm-1.7-46l3.5 43.9 43.9-3.5-3.5-43.9-43.9 3.5zm47.5 42.3l-3.8-47.8 45.9-3.7 3.9 47.8-46 3.7zm-1.6-46l3.5 43.9 41.9-3.4-3.6-43.9-41.8 3.4zm45.5 42.5l-3.8-47.9 47.8-3.9 3.9 47.8-47.9 4zm-1.7-46l3.5 43.9 43.9-3.5-3.5-43.9-43.9 3.5zm47.6 42.3l-3.9-47.8 45.9-3.7 3.9 47.8-45.9 3.7zm-1.7-46l3.5 43.9 41.9-3.4-3.5-43.9-41.9 3.4zm45.5 42.5l-3.9-47.8 47.8-3.8 3.9 47.8-47.8 3.8zm-1.7-46.1l3.5 43.9 43.9-3.5-3.5-43.9-43.9 3.5zm47.6 42.4l-3.9-47.8 47.8-3.9 3.9 47.8-47.8 3.9zm-1.7-46l3.5 43.9 43.9-3.5-3.5-43.9-43.9 3.5zm47.5 42.3l-3.9-47.8 45.9-3.7 3.9 47.8-45.9 3.7zm-1.7-46l3.5 43.9 41.9-3.4-3.5-43.9-41.9 3.4zm93.4 38.6l-47.8 3.8-3.9-47.8m2.2 1.8l3.5 43.9 43.9-3.5-3.5-43.9-43.9 3.5zm95.4 38.5l-47.8 3.9m-1.8-46.1l3.5 43.9 43.9-3.5m46-1.7l-45.9 3.7m1.9-2.2l41.9-3.4m48-1.8l-47.8 3.8m1.8-2.1l43.9-3.5m47.9-1.9l-47.8 3.9m1.8-2.2l43.9-3.5m46-1.7l-45.9 3.7m1.9-2.2l41.9-3.4m47.9-1.8l-47.8 3.9m1.8-2.2l43.9-3.5m46-1.7l-45.9 3.7m1.9-2.2l41.9-3.4m48-1.8l-47.8 3.8m1.7-2.1l43.9-3.5m48-1.9l-47.8 3.9m1.8-2.2l43.9-3.5m46-1.8l-45.9 3.7m1.9-2.1l41.9-3.4m47.9-1.8l-47.8 3.9m1.8-2.2l43.9-3.5m48-1.9l-47.8 3.9m1.8-2.2l43.9-3.5m.1 1.9 1.8-2.1-1220 98.1l3.8 47.8m-2.2-1.7l-3.5-43.9m3.7 45.8l-3.8-47.8 47.8-3.9 3.8 47.8-47.8 3.9zm-1.7-46l3.5 43.9 43.9-3.5-3.5-43.9-43.9 3.5zm47.6 42.4l-3.8-47.8 47.8-3.9 3.9 47.8-47.9 3.9zm-1.7-46.1l3.5 43.9 43.9-3.5-3.5-43.9-43.9 3.5zm47.5 42.4l-3.9-47.8 45.9-3.7 3.9 47.8-45.9 3.7zm-1.7-46l3.5 43.9 41.9-3.4-3.5-43.9-41.9 3.4zm45.6 42.4l-3.9-47.8 47.8-3.9 3.8 47.8-47.7 3.9zm-1.7-46l3.5 43.9 43.9-3.5-3.5-43.9-43.9 3.5zm47.5 42.3l-3.8-47.8 47.8-3.9 3.9 47.9-47.9 3.8zm-1.7-46l3.5 43.9 43.9-3.5-3.5-43.9-43.9 3.5zm47.6 42.4l-3.8-47.8 45.9-3.7 3.9 47.8-46 3.7zm-1.7-46.1l3.5 43.9 41.9-3.4-3.5-43.9-41.9 3.4zm45.5 42.5l-3.8-47.8 47.8-3.9 3.9 47.8-47.9 3.9zm-1.7-46l3.5 43.9 43.9-3.5-3.5-43.9-43.9 3.5zm47.6 42.3l-3.9-47.8 47.8-3.8 3.9 47.8-47.8 3.8zm-1.7-46l3.5 43.9 43.9-3.5-3.5-43.9-43.9 3.5zm47.5 42.4l-3.9-47.8 45.9-3.7 3.8 47.8-45.8 3.7zm-1.7-46.1l3.5 43.9 41.9-3.4-3.5-43.9-41.9 3.4zm45.6 42.5l-3.8-47.8 47.8-3.9 3.8 47.8-47.8 3.9zm-1.7-46l3.5 43.9 43.9-3.5-3.5-43.9-43.9 3.5zm47.5 42.3l-3.8-47.8 45.9-3.7 3.9 47.8-46 3.7zm-1.6-46l3.5 43.9 41.9-3.4-3.5-43.9-41.9 3.4zm45.5 42.5l-3.9-47.8 47.8-3.9 3.8 47.8-47.7 3.9zm-1.7-46l3.5 43.9 43.9-3.5-3.5-43.9-43.9 3.5zm47.6 42.3l-3.9-47.8 47.8-3.8 3.8 47.8-47.7 3.8zm-1.7-46l3.5 43.9 43.9-3.5-3.5-43.9-43.9 3.5zm47.5 42.3l-3.8-47.8 45.9-3.7 3.9 47.8-46 3.7zm-1.7-46l3.5 43.9 41.9-3.4-3.5-43.9-41.9 3.4zm45.6 42.5l-3.9-47.8 47.8-3.9 3.9 47.8-47.8 3.9zm-1.7-46l3.5 43.9 43.9-3.5-3.5-43.9-43.9 3.5zm47.5 42.3l-3.9-47.8 47.8-3.9 3.9 47.8-47.8 3.9zm-1.7-46l3.5 43.9 43.9-3.5-3.5-43.9-43.9 3.5zm47.6 42.3l-3.9-47.8 45.9-3.7 3.8 47.8-45.8 3.7zm-1.7-46l3.5 43.9 41.9-3.4-3.5-43.9-41.9 3.4zm45.5 42.5l-3.8-47.8 47.8-3.8 3.8 47.8-47.8 3.8zm-1.7-46l3.5 43.9 43.9-3.5-3.5-43.9-43.9 3.5zm47.6 42.3l-3.8-47.8 47.8-3.9 3.8 47.8-47.8 3.9zm-1.7-46l3.5 43.9 43.9-3.5-3.5-43.9-43.9 3.5zm47.5 42.3l-3.8-47.8 45.9-3.7 3.8 47.8-45.9 3.7zm-1.7-46l3.5 43.9 41.9-3.4-3.5-43.9-41.9 3.4zm45.6 42.5l-3.8-47.8 47.8-3.9 3.8 47.8-47.8 3.9zm-1.7-46l3.5 43.9 43.9-3.5-3.5-43.9-43.9 3.5zm47.5 42.3l-3.8-47.8 45.9-3.7 3.8 47.8-45.9 3.7zm-1.7-46l3.5 43.9 41.9-3.4-3.5-43.9-41.9 3.4zm45.6 42.5l-3.8-47.8 47.8-3.8 3.8 47.8-47.8 3.8zm-1.7-46l3.5 43.9 43.9-3.5-3.5-43.9-43.9 3.5zm47.6 42.3l-3.8-47.8 47.8-3.9 3.8 47.8-47.8 3.9zm-1.7-46l3.5 43.9 43.9-3.5-3.5-43.9-43.9 3.5zm47.5 42.3l-3.8-47.8 45.9-3.7 3.8 47.8-45.9 3.7zm-1.7-46l3.5 43.8 41.9-3.4-3.5-43.9-41.9 3.5zm45.6 42.5l-3.8-47.8 47.8-3.9 3.8 47.8-47.8 3.9zm-1.7-46.1l3.5 43.9 43.9-3.5-3.5-43.9-43.9 3.5zm47.5 42.4l-3.8-47.8 47.8-3.9 3.8 47.8-47.8 3.9zm-1.7-46l3.5 43.9 43.9-3.5-3.5-43.9-43.9 3.5zm93.4 38.6l-45.9 3.7-3.8-47.8m2.2 1.8l3.5 43.9 41.9-3.4m48-1.9l-47.8 3.9m1.8-2.2l43.9-3.5m47.9-1.9l-47.8 3.9m1.8-2.2l43.9-3.5m46-1.7l-45.9 3.7m1.9-2.2l41.9-3.4m47.9-1.8l-47.8 3.9m1.8-2.2l43.9-3.5m48-1.9l-47.8 3.8m1.8-2.1l43.9-3.5m.1 2 1.8-2.2-1491.2 120l3.7 45.9m-2.1-1.9l-3.4-41.9m3.5 43.9l-3.7-45.9 47.8-3.9 3.7 45.9-47.8 3.9zm-1.5-44l3.4 41.9 43.9-3.5-3.4-41.9-43.9 3.5zm47.4 40.3l-3.7-45.9 47.8-3.9 3.7 45.9-47.8 3.9zm-1.5-44l3.4 41.9 43.9-3.5-3.4-41.9-43.9 3.5zm47.3 40.3l-3.7-45.9 45.9-3.7 3.7 45.8-45.9 3.8zm-1.5-44l3.4 41.9 41.9-3.4-3.4-41.9-41.9 3.4zm45.4 40.5l-3.7-45.8 47.8-3.9 3.7 45.9-47.8 3.8zm-1.5-44l3.4 41.9 43.9-3.5-3.4-41.9-43.9 3.5zm47.4 40.3l-3.7-45.8 47.8-3.9 3.7 45.9-47.8 3.8zm-1.6-44l3.4 41.9 43.9-3.5-3.4-41.9-43.9 3.5zm47.4 40.3l-3.7-45.9 45.9-3.7 3.7 45.9-45.9 3.7zm-1.5-44l3.4 41.9 41.9-3.4-3.4-41.9-41.9 3.4zm45.4 40.5l-3.7-45.9 47.8-3.9 3.7 45.9-47.8 3.9zm-1.6-44l3.4 41.9 43.9-3.5-3.4-42-43.9 3.6zm47.4 40.3l-3.7-45.9 47.8-3.8 3.7 45.8-47.8 3.9zm-1.5-44l3.3 41.8 43.9-3.5-3.4-41.9-43.8 3.6zm47.4 40.3l-3.7-45.8 45.9-3.7 3.7 45.9-45.9 3.6zm-1.6-44l3.4 41.9 41.9-3.4-3.4-41.9-41.9 3.4zm45.4 40.5l-3.7-45.9 47.8-3.9 3.7 45.9-47.8 3.9zm-1.5-44l3.4 41.9 43.9-3.5-3.5-42-43.8 3.6zm47.4 40.3l-3.7-45.9 45.9-3.7 3.7 45.9-45.9 3.7zm-1.6-44l3.4 41.9 41.9-3.4-3.4-41.9-41.9 3.4zm45.4 40.5l-3.7-45.9 47.8-3.9 3.7 45.9-47.8 3.9zm-1.5-44.1l3.4 41.9 43.9-3.5-3.4-41.9-43.9 3.5zm47.4 40.4l-3.7-45.9 47.8-3.8 3.7 45.8-47.8 3.9zm-1.5-44l3.4 41.9 43.8-3.6-3.4-41.9-43.8 3.6zm47.3 40.3l-3.7-45.8 45.9-3.7 3.7 45.9-45.9 3.6zm-1.5-44l3.4 41.9 41.8-3.4-3.4-41.9-41.8 3.4zm45.4 40.5l-3.7-45.9 47.8-3.9 3.7 45.9-47.8 3.9zm-1.5-44.1l3.3 41.9 43.9-3.5-3.4-41.9-43.8 3.5zm47.3 40.4l-3.7-45.9 47.8-3.9 3.7 45.9-47.8 3.9zm-1.5-44.1l3.4 41.9 43.9-3.5-3.4-41.9-43.9 3.5zm47.4 40.4l-3.7-45.9 45.9-3.7 3.7 45.9-45.9 3.7zm-1.5-44l3.4 41.9 41.9-3.4-3.4-41.9-41.9 3.4zm45.4 40.4l-3.7-45.9 47.8-3.8 3.7 45.8-47.8 3.9zm-1.6-44l3.4 41.9 43.9-3.5-3.4-41.9-43.9 3.5zm47.4 40.4l-3.7-45.9 47.8-3.9 3.7 45.9-47.8 3.9zm-1.5-44.1l3.4 41.9 43.9-3.5-3.4-41.9-43.9 3.5zm47.4 40.4l-3.7-45.9 45.9-3.7 3.7 45.9-45.9 3.7zm-1.6-44l3.4 41.9 41.9-3.4-3.4-41.9-41.9 3.4zm45.4 40.4l-3.7-45.9 47.8-3.9 3.7 45.9-47.8 3.9zm-1.5-44l3.4 41.9 43.8-3.5-3.4-41.9-43.8 3.5zm47.4 40.4l-3.7-45.9 45.9-3.7 3.7 45.9-45.9 3.7zm-1.6-44.1l3.4 41.9 41.9-3.4-3.4-41.9-41.9 3.4zm45.4 40.5l-3.7-45.9 47.8-3.8 3.7 45.8-47.8 3.9zm-1.5-44l3.4 41.9 43.9-3.5-3.4-41.9-43.9 3.5zm47.4 40.3l-3.7-45.8 47.8-3.9 3.7 45.9-47.8 3.8zm-1.6-44l3.4 41.9 43.9-3.5-3.4-41.9-43.9 3.5zm47.4 40.3l-3.7-45.8 45.9-3.7 3.7 45.9-45.9 3.6zm-1.5-44l3.4 41.9 41.9-3.4-3.4-41.9-41.9 3.4zm45.4 40.5l-3.7-45.9 47.8-3.9 3.7 45.9-47.8 3.9zm-1.5-44l3.4 41.9 43.9-3.5-3.5-41.9-43.8 3.5zm47.3 40.3l-3.6-45.8 47.8-3.9 3.7 45.9-47.9 3.8zm-1.5-44l3.4 41.9 43.9-3.5-3.4-41.9-43.9 3.5zm47.4 40.3l-3.7-45.9 45.9-3.7 3.7 45.8-45.9 3.8zm-1.5-44l3.4 41.9 41.9-3.4-3.4-41.9-41.9 3.4zm45.4 40.5l-3.7-45.8 47.8-3.9 3.7 45.9-47.8 3.8zm-1.6-44l3.4 41.9 43.9-3.5-3.4-41.9-43.9 3.5zm47.4 40.3l-3.7-45.9 47.8-3.9 3.7 45.9-47.8 3.9zm-1.5-44l3.4 41.9 43.9-3.5-3.4-41.9-43.9 3.5zm47.4 40.3l-3.7-45.9 45.9-3.7 3.7 45.9-45.9 3.7zm-1.6-44l3.4 41.9 41.9-3.4-3.4-41.9-41.9 3.4zm45.4 40.5l-3.7-45.9 47.8-3.9 3.7 45.9-47.8 3.9zm-1.5-44l3.4 41.9 43.9-3.5-3.4-41.9-43.9 3.5zm47.4 40.3l-3.7-45.9 47.8-3.8 3.7 45.8-47.8 3.9zm-1.6-44l3.4 41.9 43.9-3.5-3.4-41.9-43.9 3.5zm47.4 40.3l-3.7-45.8m2.2 1.8l3.4 41.9m-1491.2 119.9l3.9 47.8m-2.2-1.7l-3.5-43.9m3.6 45.9l-3.9-47.8 47.8-3.9 3.9 47.8-47.8 3.9zm-1.7-46.1l3.5 43.9 43.9-3.5-3.5-43.9-43.9 3.5zm47.6 42.4l-3.9-47.8 47.8-3.8 3.8 47.8-47.7 3.8zm-1.7-46l3.5 43.9 43.9-3.5-3.5-43.9-43.9 3.5zm47.5 42.3l-3.8-47.8 45.9-3.7 3.8 47.8-45.9 3.7zm-1.7-46l3.5 43.9 41.9-3.4-3.5-43.9-41.9 3.4zm45.6 42.4l-3.8-47.8 47.8-3.8 3.9 47.8-47.9 3.8zm-1.7-46l3.5 43.9 43.9-3.5-3.5-43.9-43.9 3.5zm47.5 42.4l-3.9-47.8 47.8-3.9 3.9 47.8-47.8 3.9zm-1.7-46.1l3.5 43.9 43.9-3.5-3.5-43.9-43.9 3.5zm47.6 42.4l-3.9-47.9 45.9-3.7 3.8 47.8-45.8 3.8zm-1.7-46l3.5 43.9 41.9-3.4-3.5-43.9-41.9 3.4zm45.6 42.4l-3.8-47.8 47.7-3.9 3.8 47.8-47.7 3.9zm-1.7-46l3.5 43.9 43.9-3.5-3.5-43.9-43.9 3.5zm47.5 42.4l-3.8-47.8 47.8-3.9 3.8 47.8-47.8 3.9zm-1.7-46.1l3.5 43.9 43.9-3.5-3.5-43.9-43.9 3.5zm47.6 42.4l-3.8-47.8 45.9-3.7 3.9 47.8-46 3.7zm-1.7-46.1l3.5 43.9 41.9-3.4-3.5-43.9-41.9 3.4zm45.5 42.5l-3.9-47.8 47.8-3.9 3.9 47.8-47.8 3.9zm-1.7-46l3.5 43.9 43.9-3.5-3.5-43.9-43.9 3.5zm47.6 42.3l-3.9-47.8 45.9-3.7 3.8 47.8-45.8 3.7zm-1.7-46l3.5 43.9 41.9-3.4-3.5-43.9-41.9 3.4zm45.5 42.5l-3.8-47.8 47.8-3.8 3.9 47.8-47.9 3.8zm-1.7-46l3.5 43.9 43.9-3.5-3.5-43.9-43.9 3.5zm47.6 42.3l-3.9-47.8 47.8-3.9 3.9 47.8-47.8 3.9zm-1.7-46l3.5 43.9 43.9-3.5-3.6-43.9-43.8 3.5zm47.5 42.3l-3.8-47.8 45.8-3.7 3.8 47.8-45.8 3.7zm-1.7-46l3.5 43.9 41.9-3.4-3.5-43.9-41.9 3.4zm45.6 42.5l-3.9-47.8 47.8-3.9 3.8 47.8-47.7 3.9zm-1.7-46l3.5 43.9 43.9-3.5-3.6-43.9-43.8 3.5zm47.5 42.3l-3.8-47.8 47.8-3.9 3.8 47.8-47.8 3.9zm-1.7-46l3.5 43.9 43.9-3.5-3.5-43.9-43.9 3.5zm47.6 42.3l-3.8-47.8 45.9-3.7 3.9 47.8-46 3.7zm-1.7-46l3.5 43.9 41.9-3.4-3.5-43.9-41.9 3.4zm45.5 42.5l-3.9-47.8 47.8-3.9 3.8 47.8-47.7 3.9zm-1.6-46l3.5 43.9 43.9-3.5-3.5-43.9-43.9 3.5zm47.5 42.3l-3.8-47.8 47.8-3.8 3.8 47.8-47.8 3.8zm-1.7-46l3.5 43.9 43.9-3.6-3.5-43.9-43.9 3.6zm47.5 42.3l-3.8-47.8 45.9-3.7 3.8 47.8-45.9 3.7zm-1.6-46l3.5 43.9 41.9-3.4-3.5-43.9-41.9 3.4zm45.5 42.5l-3.8-47.8 47.8-3.9 3.8 47.8-47.8 3.9zm-1.7-46l3.5 43.9 43.9-3.5-3.5-43.9-43.9 3.5zm47.6 42.3l-3.9-47.8 45.9-3.7 3.8 47.8-45.8 3.7zm-1.7-46l3.5 43.9 41.9-3.4-3.6-43.9-41.8 3.4zm45.5 42.5l-3.8-47.8 47.8-3.9 3.8 47.8-47.8 3.9zm-1.7-46l3.5 43.9 43.9-3.5-3.5-43.9-43.9 3.5zm47.6 42.3l-3.8-47.8 47.8-3.8 3.8 47.8-47.8 3.8zm-1.7-46l3.5 43.9 43.9-3.5-3.6-44-43.8 3.6zm47.5 42.3l-3.8-47.8 45.9-3.7 3.8 47.8-45.9 3.7zm-1.7-46l3.5 43.9 41.9-3.4-3.5-43.9-41.9 3.4zm45.6 42.5l-3.8-47.8 47.8-3.9 3.8 47.8-47.8 3.9zm-1.7-46l3.5 43.9 43.9-3.6-3.5-43.9-43.9 3.6zm47.5 42.3l-3.8-47.8 47.8-3.8 3.9 47.7-47.9 3.9zm-1.7-46l3.6 43.8 43.8-3.5-3.5-43.9-43.9 3.6zm47.6 42.3l-3.8-47.8 45.9-3.7 3.8 47.8-45.9 3.7zm-1.7-46l3.5 43.9 41.9-3.4-3.5-43.9-41.9 3.4zm45.5 42.5l-3.8-47.9 47.8-3.8 3.8 47.8-47.8 3.9zm-1.7-46.1l3.5 43.9 43.9-3.5-3.5-43.9-43.9 3.5zm47.6 42.4l-3.8-47.8 47.8-3.9 3.8 47.8-47.8 3.9zm-1.7-46l3.5 43.9 43.9-3.5-3.5-43.9-43.9 3.5zm47.5 42.3l-3.8-47.8 45.9-3.7 3.8 47.8-45.9 3.7zm-1.6-46l3.5 43.9 41.9-3.4-3.5-43.9-41.9 3.4zm45.5 42.5l-3.8-47.8 47.8-3.8 3.8 47.8-47.8 3.8zm-1.7-46.1l3.5 43.9 43.9-3.5-3.5-43.9-43.9 3.5zm47.6 42.4l-3.8-47.8 47.8-3.9 3.8 47.8-47.8 3.9zm-1.7-46l3.5 43.9 43.9-3.5-3.5-43.9-43.9 3.5zm47.5 42.3l-3.8-47.8m2.1 1.8l3.5 43.9m-1491.1 119.9l3.9 47.8m-2.2-1.8l-3.5-43.9m3.6 45.9l-3.9-47.8 47.8-3.9 3.9 47.8-47.8 3.9zm-1.7-46l3.5 43.9 43.9-3.5-3.5-43.9-43.9 3.5zm47.6 42.3l-3.9-47.8 47.8-3.8 3.9 47.8-47.8 3.8zm-1.7-46l3.5 43.9 43.9-3.5-3.5-43.9-43.9 3.5zm47.5 42.3l-3.9-47.8 45.9-3.7 3.9 47.8-45.9 3.7zm-1.7-46l3.5 43.9 41.9-3.4-3.5-43.9-41.9 3.4zm45.6 42.5l-3.9-47.8 47.8-3.8 3.9 47.8-47.8 3.8zm-1.7-46l3.5 43.9 43.9-3.5-3.5-43.9-43.9 3.5zm47.5 42.3l-3.9-47.8 47.8-3.9 3.9 47.8-47.8 3.9zm-1.7-46l3.5 43.9 43.9-3.5-3.5-43.9-43.9 3.5zm47.6 42.3l-3.9-47.8 45.9-3.7 3.9 47.8-45.9 3.7zm-1.7-46l3.5 43.9 41.9-3.4-3.5-43.9-41.9 3.4zm45.5 42.5l-3.9-47.8 47.8-3.8 3.9 47.8-47.8 3.8zm-1.7-46l3.5 43.9 43.9-3.5-3.5-43.9-43.9 3.5zm47.6 42.3l-3.9-47.8 47.8-3.9 3.9 47.8-47.8 3.9zm-1.7-46l3.5 43.9 43.9-3.5-3.5-43.9-43.9 3.5zm47.5 42.3l-3.8-47.8 45.9-3.7 3.9 47.8-46 3.7zm-1.7-46l3.5 43.9 41.9-3.4-3.5-43.9-41.9 3.4zm45.6 42.5l-3.9-47.8 47.8-3.9 3.9 47.8-47.8 3.9zm-1.7-46l3.5 43.9 43.9-3.5-3.5-43.9-43.9 3.5zm47.6 42.3l-3.9-47.8 45.9-3.7 3.9 47.8-45.9 3.7zm-1.7-46l3.5 43.9 41.9-3.4-3.5-43.9-41.9 3.4zm45.5 42.5l-3.9-47.8 47.8-3.8 3.9 47.8-47.8 3.8zm-1.7-46l3.5 43.9 43.9-3.5-3.5-43.9-43.9 3.5zm47.6 42.3l-3.9-47.9 47.8-3.9 3.9 47.8-47.8 4zm-1.7-46l3.5 43.9 43.9-3.5-3.6-44-43.8 3.6zm47.5 42.3l-3.9-47.8 45.9-3.7 3.9 47.8-45.9 3.7zm-1.7-46l3.5 43.9 41.9-3.4-3.5-43.9-41.9 3.4zm45.6 42.5l-3.9-47.8 47.8-3.9 3.9 47.8-47.8 3.9zm-1.7-46.1l3.5 43.9 43.9-3.5-3.5-43.9-43.9 3.5zm47.5 42.4l-3.9-47.8 47.8-3.9 3.9 47.8-47.8 3.9zm-1.7-46l3.5 43.9 43.9-3.5-3.5-43.9-43.9 3.5zm47.6 42.3l-3.9-47.8 45.9-3.7 3.9 47.8-45.9 3.7zm-1.7-46l3.5 43.9 41.9-3.4-3.5-43.9-41.9 3.4zm45.5 42.5l-3.9-47.8 47.8-3.9 3.8 47.8-47.7 3.9zm-1.7-46.1l3.5 43.9 43.9-3.5-3.5-43.9-43.9 3.5zm47.6 42.4l-3.8-47.8 47.8-3.8 3.8 47.8-47.8 3.8zm-1.7-46.1l3.5 43.9 43.9-3.5-3.6-43.9-43.8 3.5zm47.5 42.4l-3.8-47.9 45.9-3.7 3.8 47.8-45.9 3.8zm-1.7-46l3.5 43.9 41.9-3.4-3.5-43.9-41.9 3.4zm45.6 42.4l-3.8-47.8 47.8-3.9 3.8 47.8-47.8 3.9zm-1.7-46l3.5 43.9 43.9-3.5-3.5-43.9-43.9 3.5zm47.5 42.4l-3.8-47.8 45.9-3.7 3.8 47.8-45.9 3.7zm-1.6-46.1l3.5 43.9 41.9-3.4-3.5-43.9-41.9 3.4zm45.5 42.5l-3.8-47.8 47.8-3.9 3.8 47.8-47.8 3.9zm-1.7-46l3.5 43.9 43.9-3.5-3.5-43.9-43.9 3.5zm47.6 42.3l-3.8-47.8 47.8-3.8 3.8 47.8-47.8 3.8zm-1.7-46l3.5 43.9 43.9-3.5-3.5-43.9-43.9 3.5zm47.5 42.3l-3.8-47.8 45.9-3.7 3.8 47.8-45.9 3.7zm-1.7-46l3.5 43.9 41.9-3.4-3.5-43.9-41.9 3.4zm45.6 42.5l-3.8-47.8 47.8-3.9 3.8 47.8-47.8 3.9zm-1.7-46l3.5 43.9 43.9-3.5-3.5-43.9-43.9 3.5zm47.5 42.3l-3.8-47.8 47.8-3.8 3.8 47.8-47.8 3.8zm-1.7-46l3.5 43.9 43.9-3.5-3.5-43.9-43.9 3.5zm47.6 42.3l-3.9-47.8 45.9-3.7 3.8 47.8-45.8 3.7zm-1.7-46l3.5 43.9 41.9-3.4-3.5-43.9-41.9 3.4zm45.5 42.5l-3.8-47.8 47.8-3.8 3.8 47.8-47.8 3.8zm-1.7-46l3.5 43.9 43.9-3.5-3.5-43.9-43.9 3.5zm47.6 42.3l-3.8-47.8 47.8-3.9 3.8 47.8-47.8 3.9zm-1.7-46l3.5 43.9 43.9-3.5-3.5-43.9-43.9 3.5zm47.5 42.3l-3.8-47.8 45.9-3.7 3.8 47.8-45.9 3.7zm-1.7-46l3.5 43.9 41.9-3.4-3.5-43.9-41.9 3.4zm45.6 42.5l-3.8-47.8 47.8-3.8 3.8 47.8-47.8 3.8zm-1.7-46l3.5 43.9 43.9-3.5-3.5-43.9-43.9 3.5zm47.5 42.3l-3.8-47.8 47.8-3.9 3.8 47.8-47.8 3.9zm-1.6-46l3.5 43.9 43.9-3.5-3.5-43.9-43.9 3.5zm47.5 42.3l-3.8-47.8m2.1 1.8l3.5 43.9m-1491.2 120l3.7 45.9m-2.1-1.9l-3.4-41.9m3.5 43.9l-3.7-45.9 47.8-3.9 3.7 45.9-47.8 3.9zm-1.5-44.1l3.4 41.9 43.9-3.5-3.4-41.9-43.9 3.5zm47.4 40.4l-3.7-45.9 47.8-3.8 3.7 45.9-47.8 3.8zm-1.5-44l3.4 41.9 43.9-3.5-3.4-41.9-43.9 3.5zm47.3 40.3l-3.7-45.9 45.9-3.7 3.7 45.9-45.9 3.7zm-1.5-44l3.4 41.9 41.9-3.4-3.4-41.9-41.9 3.4zm45.4 40.5l-3.7-45.9 47.8-3.8 3.7 45.9-47.8 3.8zm-1.5-44.1l3.4 41.9 43.9-3.5-3.4-41.9-43.9 3.5zm47.4 40.4l-3.7-45.9 47.8-3.9 3.7 45.9-47.8 3.9zm-1.6-44.1l3.4 41.9 43.9-3.5-3.4-41.9-43.9 3.5zm47.4 40.4l-3.7-45.9 45.9-3.7 3.7 45.9-45.9 3.7zm-1.5-44l3.4 41.9 41.9-3.4-3.4-41.9-41.9 3.4zm45.4 40.4l-3.7-45.9 47.8-3.8 3.7 45.9-47.8 3.8zm-1.6-44l3.4 41.9 43.9-3.5-3.4-41.9-43.9 3.5zm47.4 40.4l-3.7-45.9 47.8-3.9 3.7 45.9-47.8 3.9zm-1.5-44.1l3.4 41.9 43.9-3.5-3.4-41.9-43.9 3.5zm47.4 40.4l-3.7-45.9 45.9-3.7 3.7 45.9-45.9 3.7zm-1.6-44l3.4 41.9 41.9-3.4-3.4-41.9-41.9 3.4zm45.4 40.4l-3.7-45.9 47.8-3.9 3.7 45.9-47.8 3.9zm-1.5-44l3.4 41.9 43.9-3.5-3.4-41.9-43.9 3.5zm47.4 40.4l-3.7-45.9 45.9-3.7 3.7 45.9-45.9 3.7zm-1.6-44.1l3.4 41.9 41.9-3.4-3.4-41.9-41.9 3.4zm45.4 40.5l-3.7-45.9 47.8-3.8 3.7 45.9-47.8 3.8zm-1.5-44l3.4 41.9 43.9-3.5-3.4-41.9-43.9 3.5zm47.4 40.3l-3.7-45.9 47.8-3.9 3.7 45.9-47.8 3.9zm-1.5-44l3.4 41.9 43.9-3.5-3.4-41.9-43.9 3.5zm47.3 40.3l-3.7-45.9 45.9-3.7 3.7 45.9-45.9 3.7zm-1.5-44l3.4 41.9 41.9-3.4-3.4-41.9-41.9 3.4zm45.4 40.5l-3.7-45.9 47.8-3.9 3.7 45.9-47.8 3.9zm-1.5-44l3.4 41.9 43.9-3.5-3.4-41.9-43.9 3.5zm47.4 40.3l-3.7-45.9 47.8-3.9 3.7 45.9-47.8 3.9zm-1.6-44l3.4 41.9 43.9-3.5-3.4-41.9-43.9 3.5zm47.4 40.3l-3.7-45.9 45.9-3.7 3.7 45.9-45.9 3.7zm-1.5-44l3.4 41.9 41.9-3.4-3.4-41.9-41.9 3.4zm45.4 40.5l-3.7-45.8 47.8-3.9 3.7 45.9-47.8 3.8zm-1.6-44l3.4 41.9 43.9-3.5-3.4-41.9-43.9 3.5zm47.4 40.3l-3.7-45.9 47.8-3.8 3.7 45.9-47.8 3.8zm-1.5-44l3.4 41.9 43.9-3.5-3.4-41.9-43.9 3.5zm47.4 40.3l-3.7-45.9 45.9-3.7 3.7 45.9-45.9 3.7zm-1.6-44l3.4 41.9 41.9-3.4-3.4-41.9-41.9 3.4zm45.4 40.5l-3.7-45.9 47.8-3.9 3.7 45.9-47.8 3.9zm-1.5-44l3.4 41.9 43.9-3.5-3.4-41.9-43.9 3.5zm47.4 40.3l-3.7-45.9 45.9-3.7 3.7 45.9-45.9 3.7zm-1.6-44l3.4 41.9 41.9-3.4-3.4-41.9-41.9 3.4zm45.4 40.5l-3.7-45.9 47.8-3.9 3.7 45.9-47.8 3.9zm-1.5-44l3.4 41.9 43.9-3.5-3.4-41.9-43.9 3.5zm47.4 40.3l-3.7-45.9 47.8-3.8 3.7 45.9-47.8 3.8zm-1.5-44l3.4 41.9 43.9-3.5-3.4-41.9-43.9 3.5zm47.3 40.3l-3.6-45.8 45.9-3.7 3.7 45.9-46 3.6zm-1.5-44l3.4 41.9 41.9-3.4-3.4-41.9-41.9 3.4zm45.4 40.5l-3.7-45.9 47.8-3.9 3.7 45.9-47.8 3.9zm-1.5-44l3.4 41.9 43.9-3.5-3.4-41.9-43.9 3.5zm47.3 40.3l-3.7-45.9 47.8-3.8 3.7 45.9-47.8 3.8zm-1.5-44l3.4 41.9 43.9-3.5-3.4-41.9-43.9 3.5zm47.4 40.3l-3.7-45.9 45.9-3.7 3.7 45.9-45.9 3.7zm-1.5-44l3.4 41.9 41.9-3.4-3.4-41.9-41.9 3.4zm45.4 40.5l-3.7-45.9 47.8-3.8 3.7 45.9-47.8 3.8zm-1.6-44l3.4 41.9 43.9-3.5-3.4-41.9-43.9 3.5zm47.4 40.3l-3.7-45.9 47.8-3.9 3.7 45.9-47.8 3.9zm-1.5-44l3.4 41.9 43.9-3.5-3.4-41.9-43.9 3.5zm47.4 40.3l-3.7-45.9 45.9-3.7 3.7 45.9-45.9 3.7zm-1.6-44l3.4 41.9 41.9-3.4-3.4-41.9-41.9 3.4zm45.4 40.5l-3.7-45.9 47.8-3.8 3.7 45.9-47.8 3.8zm-1.5-44.1l3.4 41.9 43.9-3.5-3.4-41.9-43.9 3.5zm47.4 40.4l-3.7-45.9 47.8-3.9 3.7 45.9-47.8 3.9zm-1.6-44l3.4 41.9 43.9-3.5-3.4-41.9-43.9 3.5zm47.4 40.3l-3.7-45.9m2.2 1.9l3.4 41.9m-1491.2 119.9l3.8 47.8m-2.1-1.8l-3.5-43.9m3.6 45.9l-3.8-47.8 47.8-3.8 3.8 47.8-47.8 3.8zm-1.7-46l3.5 43.9 43.9-3.5-3.5-43.9-43.9 3.5zm47.6 42.3l-3.8-47.8 47.8-3.8 3.9 47.8-47.9 3.8zm-1.7-46l3.5 43.9 43.9-3.5-3.5-43.9-43.9 3.5zm47.5 42.3l-3.9-47.8 45.9-3.7 3.9 47.8-45.9 3.7zm-1.7-46l3.5 43.9 41.9-3.4-3.5-43.9-41.9 3.4zm45.6 42.5l-3.9-47.8 47.8-3.8 3.8 47.8-47.7 3.8zm-1.7-46l3.5 43.9 43.9-3.5-3.5-43.9-43.9 3.5zm47.5 42.3l-3.8-47.8 47.8-3.8 3.8 47.8-47.8 3.8zm-1.6-46l3.5 43.9 43.9-3.5-3.5-43.9-43.9 3.5zm47.5 42.3l-3.8-47.8 45.9-3.7 3.9 47.8-46 3.7zm-1.7-46l3.5 43.9 41.9-3.4-3.5-43.9-41.9 3.4zm45.6 42.5l-3.9-47.8 47.8-3.8 3.9 47.8-47.8 3.8zm-1.7-46l3.5 43.9 43.9-3.5-3.5-43.9-43.9 3.5zm47.5 42.3l-3.8-47.8 47.8-3.9 3.9 47.8-47.9 3.9zm-1.7-46l3.5 43.9 43.9-3.5-3.5-43.9-43.9 3.5zm47.6 42.3l-3.9-47.8 45.9-3.7 3.9 47.8-45.9 3.7zm-1.7-46l3.5 43.9 41.9-3.4-3.5-43.9-41.9 3.4zm45.5 42.5l-3.9-47.8 47.8-3.8 3.9 47.8-47.8 3.8zm-1.7-46l3.5 43.9 43.9-3.5-3.5-43.9-43.9 3.5zm47.6 42.3l-3.9-47.8 45.9-3.7 3.9 47.8-45.9 3.7zm-1.7-46l3.5 43.9 41.9-3.4-3.5-43.9-41.9 3.4zm45.5 42.5l-3.9-47.8 47.8-3.8 3.9 47.8-47.8 3.8zm-1.7-46l3.5 43.9 43.9-3.5-3.5-43.9-43.9 3.5zm47.6 42.3l-3.9-47.8 47.8-3.9 3.9 47.8-47.8 3.9zm-1.7-46l3.5 43.9 43.9-3.5-3.5-43.9-43.9 3.5zm47.5 42.3l-3.9-47.8 45.9-3.7 3.9 47.8-45.9 3.7zm-1.7-46l3.5 43.9 41.9-3.4-3.5-43.9-41.9 3.4zm45.6 42.5l-3.9-47.8 47.8-3.9 3.9 47.8-47.8 3.9zm-1.7-46l3.5 43.9 43.9-3.5-3.5-43.9-43.9 3.5zm47.5 42.3l-3.9-47.8 47.8-3.9 3.9 47.8-47.8 3.9zm-1.7-46l3.5 43.9 43.9-3.5-3.5-43.9-43.9 3.5zm47.6 42.3l-3.9-47.8 45.9-3.7 3.8 47.8-45.8 3.7zm-1.7-46l3.5 43.9 41.9-3.4-3.5-43.9-41.9 3.4zm45.6 42.5l-3.8-47.8 47.8-3.9 3.8 47.8-47.8 3.9zm-1.7-46l3.5 43.9 43.9-3.5-3.5-43.9-43.9 3.5zm47.5 42.3l-3.8-47.8 47.8-3.8 3.8 47.8-47.8 3.8zm-1.7-46l3.5 43.9 43.9-3.5-3.5-43.9-43.9 3.5zm47.6 42.3l-3.8-47.8 45.9-3.7 3.8 47.8-45.9 3.7zm-1.7-46l3.5 43.9 41.9-3.4-3.5-43.9-41.9 3.4zm45.5 42.5l-3.8-47.8 47.8-3.9 3.8 47.8-47.8 3.9zm-1.7-46.1l3.5 43.9 43.9-3.5-3.5-43.9-43.9 3.5zm47.6 42.4l-3.8-47.8 45.8-3.7 3.8 47.8-45.8 3.7zm-1.7-46l3.5 43.9 41.9-3.4-3.5-43.9-41.9 3.4zm45.5 42.4l-3.8-47.8 47.8-3.9 3.8 47.8-47.8 3.9zm-1.7-46l3.5 43.9 43.9-3.5-3.5-43.9-43.9 3.5zm47.6 42.3l-3.8-47.8 47.8-3.8 3.8 47.8-47.8 3.8zm-1.7-46l3.5 43.9 43.9-3.5-3.5-43.9-43.9 3.5zm47.5 42.4l-3.8-47.8 45.8-3.7 3.8 47.8-45.8 3.7zm-1.7-46.1l3.5 43.9 41.9-3.4-3.5-43.9-41.9 3.4zm45.6 42.5l-3.8-47.8 47.8-3.9 3.8 47.8-47.8 3.9zm-1.7-46l3.5 43.9 43.9-3.5-3.5-43.9-43.9 3.5zm47.5 42.3l-3.8-47.8 47.8-3.8 3.8 47.8-47.8 3.8zm-1.7-46l3.5 43.9 43.9-3.5-3.5-43.9-43.9 3.5zm47.6 42.4l-3.9-47.9 45.9-3.7 3.8 47.8-45.8 3.8zm-1.7-46.1l3.5 43.9 41.9-3.4-3.5-43.9-41.9 3.4zm45.5 42.5l-3.8-47.8 47.8-3.8 3.8 47.8-47.8 3.8zm-1.6-46l3.5 43.9 43.9-3.5-3.5-43.9-43.9 3.5zm47.5 42.3l-3.8-47.8 47.8-3.9 3.8 47.8-47.8 3.9zm-1.7-46l3.5 43.9 43.9-3.5-3.5-43.9-43.9 3.5zm47.6 42.3l-3.8-47.8 45.9-3.7 3.8 47.8-45.9 3.7zm-1.7-46l3.5 43.9 41.9-3.4-3.5-43.9-41.9 3.4zm45.5 42.5l-3.8-47.8 47.8-3.8 3.8 47.8-47.8 3.8zm-1.7-46l3.5 43.9 43.9-3.5-3.5-43.9-43.9 3.5zm47.6 42.3l-3.8-47.8 47.8-3.9 3.8 47.8-47.8 3.9zm-1.7-46l3.5 43.9 43.9-3.5-3.5-43.9-43.9 3.5zm47.5 42.3l-3.8-47.8m2.1 1.8l3.5 43.9m-1491.1 120l3.9 47.8m-2.2-1.8l-3.5-43.9m3.6 45.9l-3.9-47.8 47.8-3.8 3.9 47.8-47.8 3.8zm-1.7-46l3.5 43.9 43.9-3.5-3.5-43.9-43.9 3.5zm47.6 42.3l-3.9-47.8 47.8-3.8 3.9 47.8-47.8 3.8zm-1.7-46l3.5 43.9 43.9-3.5-3.5-43.9-43.9 3.5zm47.5 42.3l-3.9-47.8 45.9-3.7 3.9 47.8-45.9 3.7zm-1.7-46l3.5 43.9 41.9-3.4-3.5-43.9-41.9 3.4zm45.6 42.5l-3.9-47.8 47.8-3.8 3.9 47.8-47.8 3.8zm-1.7-46.1l3.5 43.9 43.9-3.5-3.5-43.9-43.9 3.5zm47.5 42.4l-3.9-47.8 47.8-3.8 3.9 47.8-47.8 3.8zm-1.7-46l3.5 43.9 43.9-3.5-3.5-43.9-43.9 3.5zm47.6 42.3l-3.9-47.8 45.9-3.7 3.9 47.8-45.9 3.7zm-1.7-46l3.5 43.9 41.9-3.4-3.5-43.9-41.9 3.4zm45.5 42.5l-3.9-47.8 47.8-3.8 3.9 47.8-47.8 3.8zm-1.6-46.1l3.5 43.9 43.9-3.5-3.5-43.9-43.9 3.5zm47.5 42.4l-3.9-47.8 47.8-3.9 3.9 47.8-47.8 3.9zm-1.7-46l3.5 43.9 43.9-3.5-3.5-43.9-43.9 3.5zm47.6 42.3l-3.9-47.8 45.9-3.7 3.9 47.8-45.9 3.7zm-1.7-46l3.5 43.9 41.9-3.4-3.5-43.9-41.9 3.4zm45.5 42.4l-3.9-47.8 47.8-3.8 3.9 47.8-47.8 3.8zm-1.7-46l3.5 43.9 43.9-3.5-3.5-43.9-43.9 3.5zm47.6 42.4l-3.9-47.8 45.9-3.7 3.9 47.8-45.9 3.7zm-1.7-46.1l3.5 43.9 41.9-3.4-3.5-43.9-41.9 3.4zm45.5 42.5l-3.9-47.8 47.8-3.8 3.9 47.8-47.8 3.8zm-1.7-46l3.5 43.9 43.9-3.5-3.5-43.9-43.9 3.5zm47.6 42.3l-3.9-47.8 47.8-3.9 3.9 47.8-47.8 3.9zm-1.7-46l3.5 43.9 43.9-3.5-3.5-43.9-43.9 3.5zm47.5 42.3l-3.9-47.8 45.9-3.7 3.9 47.8-45.9 3.7zm-1.7-46l3.5 43.9 41.9-3.4-3.5-43.9-41.9 3.4zm45.6 42.5l-3.9-47.8 47.8-3.8 3.9 47.8-47.8 3.8zm-1.7-46l3.5 43.9 43.9-3.5-3.5-43.9-43.9 3.5zm47.5 42.3l-3.9-47.8 47.8-3.8 3.9 47.8-47.8 3.8zm-1.7-46l3.5 43.9 43.9-3.5-3.5-43.9-43.9 3.5zm47.6 42.3l-3.9-47.8 45.9-3.7 3.8 47.8-45.8 3.7zm-1.7-46l3.5 43.9 41.9-3.4-3.5-43.9-41.9 3.4zm45.5 42.5l-3.8-47.8 47.8-3.9 3.8 47.8-47.8 3.9zm-1.7-46l3.5 43.9 43.9-3.5-3.5-43.9-43.9 3.5zm47.6 42.3l-3.8-47.8 47.8-3.8 3.8 47.8-47.8 3.8zm-1.7-46l3.5 43.9 43.9-3.5-3.5-43.9-43.9 3.5zm47.5 42.3l-3.8-47.8 45.9-3.7 3.8 47.8-45.9 3.7zm-1.7-46l3.5 43.9 41.9-3.4-3.5-43.9-41.9 3.4zm45.6 42.5l-3.8-47.8 47.8-3.8 3.8 47.8-47.8 3.8zm-1.7-46l3.5 43.9 43.9-3.5-3.5-43.9-43.9 3.5zm47.6 42.3l-3.8-47.8 45.9-3.7 3.8 47.8-45.9 3.7zm-1.7-46l3.5 43.9 41.9-3.4-3.5-43.9-41.9 3.4zm45.5 42.5l-3.8-47.8 47.8-3.9 3.8 47.8-47.8 3.9zm-1.7-46l3.5 43.9 43.9-3.6-3.5-43.9-43.9 3.6zm47.6 42.3l-3.8-47.8 47.8-3.8 3.8 47.8-47.8 3.8zm-1.7-46l3.5 43.9 43.9-3.5-3.5-43.9-43.9 3.5zm47.5 42.3l-3.8-47.8 45.9-3.7 3.8 47.8-45.9 3.7zm-1.7-46l3.5 43.9 41.9-3.4-3.5-43.9-41.9 3.4zm45.6 42.5l-3.8-47.8 47.8-3.9 3.8 47.8-47.8 3.9zm-1.7-46l3.5 43.9 43.9-3.5-3.5-43.9-43.9 3.5zm47.5 42.3l-3.8-47.8 47.8-3.8 3.8 47.8-47.8 3.8zm-1.7-46l3.5 43.9 43.9-3.5-3.5-43.9-43.9 3.5zm47.6 42.3l-3.8-47.8 45.9-3.7 3.8 47.8-45.9 3.7zm-1.7-46l3.5 43.9 41.9-3.4-3.5-43.9-41.9 3.4zm45.5 42.5l-3.8-47.8 47.8-3.8 3.8 47.8-47.8 3.8zm-1.7-46l3.5 43.9 43.9-3.5-3.5-43.9-43.9 3.5zm47.6 42.3l-3.8-47.8 47.8-3.9 3.8 47.8-47.8 3.9zm-1.7-46l3.5 43.9 43.9-3.5-3.5-43.9-43.9 3.5zm47.5 42.3l-3.8-47.8 45.9-3.7 3.8 47.8-45.9 3.7zm-1.7-46l3.5 43.9 41.9-3.4-3.5-43.9-41.9 3.4zm45.6 42.5l-3.8-47.8 47.8-3.8 3.8 47.8-47.8 3.8zm-1.7-46l3.5 43.9 43.9-3.5-3.5-43.9-43.9 3.5zm47.6 42.3l-3.8-47.8 47.8-3.9 3.8 47.8-47.8 3.9zm-1.7-46l3.5 43.9 43.9-3.5-3.5-43.9-43.9 3.5zm47.5 42.3l-3.8-47.8m2.1 1.8l3.5 43.9m-1491.1 119.9l3.7 45.9m-2.2-1.9l-3.4-41.9m3.6 43.9l-3.7-45.9 47.8-3.8 3.7 45.9-47.8 3.8zm-1.6-44l3.4 41.9 43.9-3.5-3.4-41.9-43.9 3.5zm47.4 40.3l-3.7-45.9 47.8-3.8 3.7 45.9-47.8 3.8zm-1.5-44l3.4 41.9 43.9-3.5-3.4-41.9-43.9 3.5zm47.4 40.3l-3.7-45.9 45.9-3.7 3.7 45.9-45.9 3.7zm-1.6-44l3.4 41.9 41.9-3.4-3.4-41.9-41.9 3.4zm45.4 40.5l-3.7-45.9 47.8-3.8 3.7 45.9-47.8 3.8zm-1.5-44l3.4 41.9 43.9-3.5-3.4-41.9-43.9 3.5zm47.4 40.3l-3.7-45.9 47.8-3.8 3.7 45.9-47.8 3.8zm-1.6-44l3.4 41.9 43.9-3.5-3.4-41.9-43.9 3.5zm47.4 40.3l-3.7-45.9 45.9-3.7 3.7 45.9-45.9 3.7zm-1.5-44l3.4 41.9 41.9-3.4-3.4-41.9-41.9 3.4zm45.4 40.5l-3.7-45.9 47.8-3.8 3.7 45.9-47.8 3.8zm-1.6-44l3.4 41.9 43.9-3.5-3.4-41.9-43.9 3.5zm47.4 40.3l-3.7-45.9 47.8-3.9 3.7 45.9-47.8 3.9zm-1.5-44l3.4 41.9 43.9-3.5-3.4-41.9-43.9 3.5zm47.4 40.3l-3.7-45.9 45.9-3.7 3.7 45.9-45.9 3.7zm-1.6-44l3.4 41.9 41.9-3.4-3.4-41.9-41.9 3.4zm45.4 40.5l-3.7-45.9 47.8-3.8 3.7 45.9-47.8 3.8zm-1.5-44l3.4 41.9 43.9-3.5-3.4-41.9-43.9 3.5zm47.4 40.3l-3.7-45.9 45.9-3.7 3.7 45.9-45.9 3.7zm-1.5-44l3.4 41.9 41.9-3.4-3.4-41.9-41.9 3.4zm45.3 40.5l-3.7-45.9 47.8-3.8 3.7 45.9-47.8 3.8zm-1.5-44l3.4 41.9 43.9-3.5-3.4-41.9-43.9 3.5zm47.4 40.3l-3.7-45.9 47.8-3.9 3.7 45.9-47.8 3.9zm-1.5-44l3.4 41.9 43.9-3.5-3.4-41.9-43.9 3.5zm47.4 40.3l-3.7-45.9 45.9-3.7 3.7 45.9-45.9 3.7zm-1.6-44l3.4 41.9 41.9-3.4-3.4-41.9-41.9 3.4zm45.4 40.5l-3.7-45.9 47.8-3.8 3.7 45.9-47.8 3.8zm-1.5-44l3.4 41.9 43.9-3.5-3.4-41.9-43.9 3.5zm47.4 40.3l-3.7-45.9 47.8-3.8 3.7 45.9-47.8 3.8zm-1.6-44l3.4 41.9 43.9-3.5-3.4-41.9-43.9 3.5zm47.4 40.3l-3.7-45.9 45.9-3.7 3.7 45.9-45.9 3.7zm-1.5-44l3.4 41.9 41.9-3.4-3.4-41.9-41.9 3.4zm45.4 40.5l-3.7-45.9 47.8-3.9 3.7 45.9-47.8 3.9zm-1.6-44l3.4 41.9 43.9-3.5-3.4-41.9-43.9 3.5zm47.4 40.3l-3.7-45.9 47.8-3.8 3.7 45.9-47.8 3.8zm-1.5-44l3.4 41.9 43.9-3.5-3.4-41.9-43.9 3.5zm47.4 40.3l-3.7-45.9 45.9-3.7 3.7 45.9-45.9 3.7zm-1.6-44l3.4 41.9 41.9-3.4-3.4-41.9-41.9 3.4zm45.4 40.5l-3.7-45.9 47.8-3.8 3.7 45.9-47.8 3.8zm-1.5-44.1l3.4 41.9 43.9-3.5-3.4-41.9-43.9 3.5zm47.4 40.4l-3.7-45.9 45.9-3.7 3.7 45.9-45.9 3.7zm-1.5-44l3.4 41.9 41.9-3.4-3.4-41.9-41.9 3.4zm45.3 40.4l-3.7-45.9 47.8-3.9 3.7 45.9-47.8 3.9zm-1.5-44l3.4 41.9 43.9-3.5-3.4-41.9-43.9 3.5zm47.4 40.4l-3.7-45.9 47.8-3.8 3.7 45.9-47.8 3.8zm-1.5-44.1l3.4 41.9 43.9-3.5-3.4-41.9-43.9 3.5zm47.3 40.4l-3.7-45.9 45.9-3.7 3.7 45.9-45.9 3.7zm-1.5-44l3.4 41.9 41.9-3.4-3.4-41.9-41.9 3.4zm45.4 40.4l-3.7-45.9 47.8-3.8 3.7 45.9-47.8 3.8zm-1.5-44l3.4 41.9 43.9-3.5-3.4-41.9-43.9 3.5zm47.4 40.4l-3.7-45.9 47.8-3.8 3.7 45.9-47.8 3.8zm-1.6-44.1l3.4 41.9 43.9-3.5-3.4-41.9-43.9 3.5zm47.4 40.4l-3.7-45.9 45.9-3.7 3.7 45.9-45.9 3.7zm-1.5-44.1l3.4 41.9 41.9-3.4-3.4-41.9-41.9 3.4zm45.4 40.5l-3.7-45.9 47.8-3.8 3.7 45.9-47.8 3.8zm-1.6-44l3.4 41.9 43.9-3.5-3.4-41.9-43.9 3.5zm47.4 40.3l-3.7-45.9 47.8-3.8 3.7 45.9-47.8 3.8zm-1.5-44l3.4 41.9 43.9-3.5-3.4-41.9-43.9 3.5zm47.4 40.4l-3.7-45.9 45.9-3.7 3.7 45.9-45.9 3.7zm-1.6-44.1l3.4 41.9 41.9-3.4-3.4-41.8-41.9 3.3zm45.4 40.5l-3.7-45.9 47.8-3.8 3.7 45.9-47.8 3.8zm-1.5-44l3.4 41.9 43.9-3.5-3.4-41.9-43.9 3.5zm47.4 40.3l-3.7-45.9 47.8-3.9 3.7 45.9-47.8 3.9zm-1.6-44l3.4 41.9 43.9-3.5-3.4-41.9-43.9 3.5zm47.4 40.3l-3.7-45.9m2.2 1.9l3.4 41.9m-1491.2 120l3.9 47.8m-2.2-1.8l-3.5-43.9m3.6 45.9l-3.9-47.8 47.8-3.8 3.9 47.8-47.8 3.8zm-1.7-46l3.5 43.9 43.9-3.5-3.5-43.9-43.9 3.5zm47.6 42.3l-3.9-47.8 47.8-3.8 3.9 47.8-47.8 3.8zm-1.7-46l3.5 43.9 43.9-3.5-3.5-43.9-43.9 3.5zm47.5 42.3l-3.9-47.8 45.9-3.7 3.9 47.8-45.9 3.7zm-1.7-46l3.5 43.9 41.9-3.4-3.5-43.9-41.9 3.4zm45.6 42.5l-3.9-47.8 47.8-3.8 3.9 47.8-47.8 3.8zm-1.7-46l3.5 43.9 43.9-3.5-3.5-43.9-43.9 3.5zm47.6 42.3l-3.9-47.8 47.8-3.8 3.9 47.8-47.8 3.8zm-1.7-46l3.5 43.9 43.9-3.5-3.5-43.9-43.9 3.5zm47.5 42.3l-3.9-47.8 45.9-3.7 3.9 47.8-45.9 3.7zm-1.7-46l3.5 43.9 41.9-3.4-3.5-43.9-41.9 3.4zm45.6 42.5l-3.9-47.8 47.8-3.8 3.9 47.8-47.8 3.8zm-1.7-46l3.5 43.9 43.9-3.5-3.6-44-43.8 3.6zm47.5 42.3l-3.9-47.8 47.8-3.9 3.9 47.8-47.8 3.9zm-1.7-46l3.5 43.9 43.9-3.5-3.5-43.9-43.9 3.5zm47.6 42.3l-3.9-47.8 45.9-3.7 3.9 47.8-45.9 3.7zm-1.7-46l3.5 43.9 41.9-3.4-3.5-43.9-41.9 3.4zm45.5 42.5l-3.9-47.8 47.8-3.8 3.9 47.8-47.8 3.8zm-1.7-46.1l3.5 43.9 43.9-3.5-3.5-43.9-43.9 3.5zm47.6 42.4l-3.9-47.8 45.9-3.7 3.9 47.8-45.9 3.7zm-1.7-46l3.5 43.9 41.9-3.4-3.5-43.9-41.9 3.4zm45.5 42.4l-3.9-47.8 47.8-3.8 3.9 47.8-47.8 3.8zm-1.7-46l3.5 43.9 43.9-3.5-3.5-43.9-43.9 3.5zm47.6 42.4l-3.9-47.8 47.9-3.9 3.9 47.8-47.9 3.9zm-1.7-46.1l3.5 43.9 43.9-3.5-3.5-43.9-43.9 3.5zm47.5 42.4l-3.9-47.8 45.9-3.7 3.9 47.8-45.9 3.7zm-1.7-46.1l3.5 43.9 41.9-3.4-3.5-43.9-41.9 3.4zm45.6 42.5l-3.9-47.8 47.8-3.8 3.9 47.8-47.8 3.8zm-1.7-46l3.5 43.9 43.9-3.5-3.5-43.9-43.9 3.5zm47.6 42.3l-3.9-47.8 47.8-3.8 3.9 47.8-47.8 3.8zm-1.7-46l3.5 43.9 43.9-3.5-3.5-43.9-43.9 3.5zm47.5 42.4l-3.9-47.8 45.9-3.7 3.8 47.8-45.8 3.7zm-1.7-46.1l3.5 43.9 41.9-3.4-3.5-43.9-41.9 3.4zm45.6 42.5l-3.8-47.8 47.8-3.9 3.8 47.8-47.8 3.9zm-1.7-46l3.5 43.9 43.9-3.5-3.5-43.9-43.9 3.5zm47.5 42.3l-3.8-47.8 47.8-3.8 3.9 47.8-47.9 3.8zm-1.7-46l3.5 43.9 43.9-3.5-3.5-43.9-43.9 3.5zm47.6 42.3l-3.8-47.8 45.9-3.7 3.8 47.8-45.9 3.7zm-1.7-46l3.5 43.9 41.9-3.4-3.5-43.9-41.9 3.4zm45.5 42.5l-3.8-47.8 47.8-3.8 3.8 47.8-47.8 3.8zm-1.7-46l3.5 43.9 43.9-3.5-3.5-43.9-43.9 3.5zm47.6 42.3l-3.8-47.8 45.9-3.7 3.8 47.8-45.9 3.7zm-1.7-46l3.5 43.9 41.9-3.4-3.5-43.9-41.9 3.4zm45.5 42.5l-3.8-47.8 47.8-3.9 3.8 47.8-47.8 3.9zm-1.7-46l3.5 43.9 43.9-3.5-3.5-43.9-43.9 3.5zm47.6 42.3l-3.8-47.8 47.8-3.8 3.8 47.8-47.8 3.8zm-1.7-46l3.5 43.9 43.9-3.5-3.5-43.9-43.9 3.5zm47.5 42.3l-3.8-47.8 45.9-3.7 3.8 47.8-45.9 3.7zm-1.7-46l3.5 43.9 41.9-3.4-3.5-43.9-41.9 3.4zm45.6 42.5l-3.8-47.8 47.8-3.8 3.8 47.8-47.8 3.8zm-1.7-46l3.5 43.9 43.9-3.5-3.5-43.9-43.9 3.5zm47.5 42.3l-3.8-47.8 47.8-3.8 3.8 47.8-47.8 3.8zm-1.6-46l3.5 43.9 43.9-3.5-3.5-43.9-43.9 3.5zm47.5 42.3l-3.8-47.8 45.9-3.7 3.8 47.8-45.9 3.7zm-1.7-46l3.5 43.9 41.9-3.4-3.5-43.9-41.9 3.4zm45.6 42.5l-3.8-47.8 47.8-3.8 3.8 47.8-47.8 3.8zm-1.7-46l3.5 43.9 43.9-3.5-3.5-43.9-43.9 3.5zm47.5 42.3l-3.8-47.8 47.8-3.8 3.8 47.8-47.8 3.8zm-1.7-46l3.5 43.9 43.9-3.5-3.5-43.9-43.9 3.5zm47.6 42.3l-3.8-47.8 45.9-3.7 3.8 47.8-45.9 3.7zm-1.7-46l3.5 43.9 41.9-3.4-3.5-43.9-41.9 3.4zm45.5 42.5l-3.8-47.8 47.8-3.8 3.8 47.8-47.8 3.8zm-1.7-46l3.5 43.9 43.9-3.5-3.5-43.9-43.9 3.5zm47.6 42.3l-3.8-47.8 47.8-3.9 3.8 47.8-47.8 3.9zm-1.7-46l3.5 43.9 43.9-3.5-3.5-43.9-43.9 3.5zm47.5 42.3l-3.8-47.8m2.1 1.8l3.5 43.9m-1531.1 171.3-2.2-1.8 42.2-49.6l3.9 47.8-45.9 3.7m1.8-2.1l41.9-3.4-3.5-43.9m3.6 45.9l-3.9-47.8 47.8-3.8 3.9 47.8-47.8 3.8zm-1.7-46l3.5 43.9 43.9-3.5-3.5-43.9-43.9 3.5zm47.6 42.3l-3.9-47.8 47.8-3.8 3.9 47.8-47.8 3.8zm-1.7-46l3.5 43.9 43.9-3.5-3.5-43.9-43.9 3.5zm47.5 42.4l-3.9-47.8 45.9-3.7 3.9 47.8-45.9 3.7zm-1.7-46.1l3.5 43.9 41.9-3.4-3.5-43.9-41.9 3.4zm45.6 42.5l-3.9-47.8 47.8-3.8 3.9 47.8-47.8 3.8zm-1.7-46l3.5 43.9 43.9-3.5-3.5-43.9-43.9 3.5zm47.5 42.3l-3.9-47.8 47.8-3.8 3.9 47.8-47.8 3.8zm-1.7-46l3.5 43.9 43.9-3.5-3.5-43.9-43.9 3.5zm47.6 42.3l-3.9-47.8 45.9-3.7 3.9 47.8-45.9 3.7zm-1.7-46l3.5 43.9 41.9-3.4-3.5-43.9-41.9 3.4zm45.6 42.5l-3.9-47.8 47.8-3.8 3.9 47.8-47.8 3.8zm-1.7-46l3.5 43.9 43.9-3.5-3.5-43.9-43.9 3.5zm47.5 42.3l-3.9-47.8 47.8-3.9 3.9 47.8-47.8 3.9zm-1.7-46l3.5 43.9 43.9-3.5-3.5-43.9-43.9 3.5zm47.6 42.3l-3.9-47.8 45.9-3.7 3.9 47.8-45.9 3.7zm-1.7-46l3.5 43.9 41.9-3.4-3.5-43.9-41.9 3.4zm45.5 42.5l-3.9-47.8 47.8-3.8 3.9 47.8-47.8 3.8zm-1.7-46l3.5 43.9 43.9-3.5-3.5-43.9-43.9 3.5zm47.6 42.3l-3.9-47.8 45.9-3.7 3.9 47.8-45.9 3.7zm-1.7-46l3.5 43.9 41.9-3.4-3.5-43.9-41.9 3.4zm45.5 42.5l-3.9-47.8 47.8-3.8 3.9 47.8-47.8 3.8zm-1.7-46l3.5 43.9 43.9-3.5-3.5-43.9-43.9 3.5zm47.6 42.3l-3.9-47.8 47.8-3.9 3.9 47.8-47.8 3.9zm-1.7-46l3.5 43.9 43.9-3.5-3.5-43.9-43.9 3.5zm47.5 42.3l-3.9-47.8 45.9-3.7 3.9 47.8-45.9 3.7zm-1.7-46l3.5 43.9 41.9-3.4-3.5-43.9-41.9 3.4zm45.6 42.5l-3.9-47.8 47.8-3.8 3.9 47.8-47.8 3.8zm-1.7-46l3.5 43.9 43.9-3.5-3.5-43.9-43.9 3.5zm47.5 42.3l-3.9-47.8 47.8-3.8 3.9 47.8-47.8 3.8zm-1.7-46l3.5 43.9 43.9-3.5-3.5-43.9-43.9 3.5zm47.6 42.3l-3.9-47.8 45.9-3.7 3.8 47.8-45.8 3.7zm-1.7-46l3.5 43.9 41.9-3.4-3.5-43.9-41.9 3.4zm45.6 42.5l-3.8-47.8 47.8-3.9 3.8 47.8-47.8 3.9zm-1.7-46l3.5 43.9 43.9-3.5-3.5-43.9-43.9 3.5zm47.5 42.3l-3.8-47.8 47.8-3.8 3.8 47.8-47.8 3.8zm-1.7-46l3.5 43.9 43.9-3.5-3.5-43.9-43.9 3.5zm47.6 42.3l-3.8-47.8 45.9-3.7 3.8 47.8-45.9 3.7zm-1.7-46l3.5 43.9 41.9-3.4-3.5-43.9-41.9 3.4zm45.5 42.5l-3.8-47.8 47.8-3.8 3.8 47.8-47.8 3.8zm-1.7-46l3.5 43.9 43.9-3.5-3.5-43.9-43.9 3.5zm47.6 42.3l-3.8-47.8 45.9-3.7 3.8 47.8-45.9 3.7zm-1.7-46l3.5 43.9 41.9-3.4-3.5-43.9-41.9 3.4zm45.5 42.5l-3.8-47.8 47.8-3.9 3.8 47.8-47.8 3.9zm-1.7-46.1l3.5 43.9 43.9-3.5-3.5-43.9-43.9 3.5zm47.6 42.4l-3.8-47.8 47.8-3.8 3.8 47.8-47.8 3.8zm-1.7-46.1l3.5 43.9 43.9-3.5-3.5-43.9-43.9 3.5zm47.5 42.4l-3.8-47.8 45.9-3.7 3.8 47.8-45.9 3.7zm-1.7-46l3.5 43.9 41.9-3.4-3.5-43.9-41.9 3.4zm45.6 42.4l-3.8-47.8 47.8-3.8 3.8 47.8-47.8 3.8zm-1.7-46l3.5 43.9 43.9-3.5-3.5-43.9-43.9 3.5zm47.5 42.4l-3.8-47.8 47.8-3.8 3.8 47.8-47.8 3.8zm-1.7-46.1l3.5 43.9 43.9-3.5-3.5-43.9-43.9 3.5zm47.6 42.4l-3.8-47.8 45.9-3.7 3.8 47.8-45.9 3.7zm-1.7-46l3.5 43.9 41.9-3.4-3.5-43.9-41.9 3.4zm45.5 42.4l-3.8-47.8 47.8-3.8 3.8 47.8-47.8 3.8zm-1.6-46l3.5 43.9 43.9-3.5-3.5-43.9-43.9 3.5zm47.5 42.3l-3.8-47.8 47.8-3.8 3.8 47.8-47.8 3.8zm-1.7-46l3.5 43.9 43.9-3.5-3.5-43.9-43.9 3.5zm47.5 42.4l-3.8-47.8 45.9-3.7 3.8 47.8-45.9 3.7zm-1.6-46.1l3.5 43.9 41.9-3.4-3.5-43.9-41.9 3.4zm45.5 42.5l-3.8-47.8 47.8-3.8 3.8 47.8-47.8 3.8zm-1.7-46l3.5 43.9 43.9-3.5-3.5-43.9-43.9 3.5zm47.6 42.3l-3.8-47.8 47.8-3.9 3.8 47.8-47.8 3.9zm-1.7-46l3.5 43.9 43.9-3.5-3.5-43.9-43.9 3.5zm47.5 42.4l-3.8-47.8m2.1 1.7l3.5 43.9m-1535 123.5l3.7 45.9m-2.2-1.9l-3.4-41.9m3.6 43.9l-3.7-45.9 45.9-3.7 3.7 45.9-45.9 3.7zm-1.5-44l3.4 41.9 41.9-3.4-3.4-41.9-41.9 3.4zm45.4 40.5l-3.7-45.9 47.8-3.8 3.7 45.9-47.8 3.8zm-1.6-44l3.4 41.9 43.9-3.5-3.4-41.9-43.9 3.5zm47.4 40.3l-3.7-45.9 47.8-3.8 3.7 45.8-47.8 3.9zm-1.5-44l3.4 41.9 43.9-3.5-3.4-41.9-43.9 3.5zm47.4 40.3l-3.7-45.8 45.9-3.7 3.7 45.9-45.9 3.6zm-1.6-44l3.4 41.9 41.9-3.4-3.4-41.9-41.9 3.4zm45.4 40.5l-3.7-45.9 47.8-3.8 3.7 45.9-47.8 3.8zm-1.5-44l3.4 41.9 43.9-3.5-3.4-41.9-43.9 3.5zm47.4 40.3l-3.7-45.9 47.8-3.8 3.7 45.9-47.8 3.8zm-1.6-44l3.4 41.9 43.9-3.5-3.4-41.9-43.9 3.5zm47.4 40.3l-3.7-45.9 45.9-3.7 3.7 45.9-45.9 3.7zm-1.5-44l3.4 41.9 41.9-3.4-3.4-41.9-41.9 3.4zm45.4 40.5l-3.7-45.9 47.8-3.8 3.7 45.8-47.8 3.9zm-1.6-44l3.4 41.8 43.9-3.5-3.4-41.9-43.9 3.6zm47.4 40.3l-3.7-45.8 47.8-3.9 3.7 45.9-47.8 3.8zm-1.5-44l3.4 41.9 43.9-3.5-3.4-41.9-43.9 3.5zm47.4 40.3l-3.7-45.9 45.9-3.7 3.7 45.9-45.9 3.7zm-1.5-44l3.4 41.9 41.9-3.4-3.4-41.9-41.9 3.4zm45.3 40.5l-3.7-45.9 47.8-3.8 3.7 45.9-47.8 3.8zm-1.5-44.1l3.4 41.9 43.9-3.5-3.4-41.9-43.9 3.5zm47.4 40.4l-3.7-45.9 45.9-3.7 3.7 45.9-45.9 3.7zm-1.5-44l3.4 41.9 41.9-3.4-3.4-41.9-41.9 3.4zm45.4 40.4l-3.7-45.9 47.8-3.8 3.7 45.8-47.8 3.9zm-1.6-44l3.4 41.9 43.9-3.5-3.4-41.9-43.9 3.5zm47.4 40.4l-3.7-45.8 47.8-3.9 3.7 45.9-47.8 3.8zm-1.5-44.1l3.4 41.9 43.9-3.5-3.4-41.9-43.9 3.5zm47.4 40.4l-3.7-45.9 45.9-3.7 3.7 45.9-45.9 3.7zm-1.6-44l3.4 41.9 41.9-3.4-3.4-41.9-41.9 3.4zm45.4 40.4l-3.7-45.9 47.8-3.8 3.7 45.9-47.8 3.8zm-1.5-44l3.4 41.9 43.9-3.5-3.4-41.9-43.9 3.5zm47.4 40.4l-3.7-45.9 47.8-3.8 3.7 45.9-47.8 3.8zm-1.6-44.1l3.4 41.9 43.9-3.5-3.4-41.9-43.9 3.5zm47.4 40.4l-3.7-45.9 45.9-3.7 3.7 45.8-45.9 3.8zm-1.5-44.1l3.4 41.9 41.9-3.4-3.4-41.9-41.9 3.4zm45.4 40.5l-3.7-45.8 47.8-3.9 3.7 45.9-47.8 3.8zm-1.6-44l3.4 41.9 43.9-3.5-3.4-41.9-43.9 3.5zm47.4 40.3l-3.7-45.9 47.8-3.8 3.7 45.9-47.8 3.8zm-1.5-44l3.4 41.9 43.9-3.5-3.4-41.9-43.9 3.5zm47.4 40.4l-3.7-45.9 45.9-3.7 3.7 45.9-45.9 3.7zm-1.6-44.1l3.4 41.9 41.9-3.4-3.4-41.9-41.9 3.4zm45.4 40.5l-3.7-45.9 47.8-3.8 3.7 45.9-47.8 3.8zm-1.5-44l3.4 41.9 43.9-3.5-3.4-41.9-43.9 3.5zm47.4 40.3l-3.7-45.9 45.9-3.7 3.7 45.8-45.9 3.8zm-1.5-44l3.4 41.9 41.9-3.4-3.4-41.9-41.9 3.4zm45.3 40.5l-3.7-45.8 47.8-3.9 3.7 45.9-47.8 3.8zm-1.5-44l3.4 41.9 43.9-3.5-3.4-41.9-43.9 3.5zm47.4 40.3l-3.7-45.9 47.8-3.8 3.7 45.9-47.8 3.8zm-1.5-44l3.4 41.9 43.9-3.5-3.4-41.9-43.9 3.5zm47.4 40.3l-3.7-45.9 45.9-3.7 3.7 45.9-45.9 3.7zm-1.6-44l3.4 41.9 41.9-3.4-3.4-41.9-41.9 3.4zm45.4 40.5l-3.7-45.9 47.8-3.8 3.7 45.9-47.8 3.8zm-1.5-44l3.4 41.9 43.9-3.5-3.4-41.9-43.9 3.5zm47.4 40.3l-3.7-45.9 47.8-3.8 3.7 45.8-47.8 3.9zm-1.6-44l3.4 41.9 43.9-3.5-3.4-41.9-43.9 3.5zm47.4 40.3l-3.7-45.8 45.9-3.7 3.7 45.9-45.9 3.6zm-1.5-44l3.4 41.9 41.9-3.4-3.4-41.9-41.9 3.4zm45.4 40.5l-3.7-45.9 47.8-3.8 3.7 45.9-47.8 3.8zm-1.6-44l3.4 41.9 43.9-3.5-3.4-41.9-43.9 3.5zm47.4 40.3l-3.7-45.9 47.8-3.8 3.7 45.9-47.8 3.8zm-1.5-44l3.4 41.9 43.9-3.5-3.4-41.9-43.9 3.5zm47.4 40.3l-3.7-45.9 45.9-3.7 3.7 45.9-45.9 3.7zm-1.6-44l3.4 41.9 41.9-3.4-3.4-41.9-41.9 3.4zm45.4 40.5l-3.7-45.9 47.8-3.8 3.7 45.8-47.8 3.9zm-1.5-44l3.4 41.9 43.9-3.5-3.4-41.9-43.9 3.5zm47.4 40.3l-3.7-45.8 47.8-3.9 3.7 45.9-47.8 3.8zm-1.5-44l3.4 41.9 43.9-3.5-3.4-41.9-43.9 3.5zm47.3 40.3l-3.7-45.9m2.2 1.9l3.4 41.9m-1535.1 123.5l3.9 47.8m-2.2-1.8l-3.5-43.9m3.7 45.9l-3.9-47.8 45.9-3.7 3.9 47.8-45.9 3.7zm-1.7-46l3.5 43.9 41.9-3.4-3.5-43.9-41.9 3.4zm45.5 42.4l-3.9-47.8 47.8-3.8 3.9 47.8-47.8 3.8zm-1.6-46l3.5 43.9 43.9-3.5-3.5-43.9-43.9 3.5zm47.5 42.3l-3.9-47.8 47.8-3.8 3.9 47.8-47.8 3.8zm-1.7-46l3.5 43.9 43.9-3.5-3.5-43.9-43.9 3.5zm47.6 42.4l-3.9-47.8 45.9-3.7 3.9 47.8-45.9 3.7zm-1.7-46.1l3.5 43.9 41.9-3.4-3.5-43.9-41.9 3.4zm45.5 42.5l-3.9-47.8 47.8-3.8 3.9 47.8-47.8 3.8zm-1.7-46l3.5 43.9 43.9-3.5-3.5-43.9-43.9 3.5zm47.6 42.3l-3.9-47.8 47.8-3.8 3.9 47.8-47.8 3.8zm-1.7-46l3.5 43.9 43.9-3.5-3.5-43.9-43.9 3.5zm47.5 42.4l-3.9-47.8 45.9-3.8 3.9 47.8-45.9 3.8zm-1.7-46.1l3.5 43.9 41.9-3.4-3.5-43.9-41.9 3.4zm45.6 42.5l-3.9-47.8 47.8-3.8 3.9 47.8-47.8 3.8zm-1.7-46l3.5 43.9 43.9-3.5-3.5-43.9-43.9 3.5zm47.5 42.3l-3.9-47.8 47.8-3.8 3.9 47.8-47.8 3.8zm-1.7-46l3.5 43.9 43.9-3.5-3.5-43.9-43.9 3.5zm47.6 42.3l-3.9-47.8 45.9-3.7 3.9 47.8-45.9 3.7zm-1.7-46l3.5 43.9 41.9-3.4-3.5-43.9-41.9 3.4zm45.5 42.5l-3.9-47.8 47.8-3.8 3.9 47.8-47.8 3.8zm-1.7-46l3.5 43.9 43.9-3.5-3.5-43.9-43.9 3.5zm47.6 42.3l-3.9-47.8 45.9-3.7 3.9 47.8-45.9 3.7zm-1.7-46l3.5 43.9 41.9-3.4-3.5-43.9-41.9 3.4zm45.5 42.5l-3.9-47.8 47.8-3.8 3.9 47.8-47.8 3.8zm-1.7-46l3.5 43.9 43.9-3.5-3.5-43.9-43.9 3.5zm47.6 42.3l-3.9-47.8 47.8-3.8 3.9 47.8-47.8 3.8zm-1.7-46l3.5 43.9 43.9-3.5-3.5-43.9-43.9 3.5zm47.5 42.3l-3.9-47.8 45.9-3.7 3.9 47.8-45.9 3.7zm-1.6-46l3.5 43.9 41.9-3.4-3.5-43.9-41.9 3.4zm45.5 42.5l-3.9-47.8 47.8-3.8 3.9 47.8-47.8 3.8zm-1.7-46l3.5 43.9 43.9-3.5-3.5-43.9-43.9 3.5zm47.6 42.3l-3.9-47.8 47.8-3.8 3.9 47.8-47.8 3.8zm-1.7-46l3.5 43.9 43.9-3.5-3.5-43.9-43.9 3.5zm47.5 42.3l-3.9-47.8 45.9-3.7 3.8 47.8-45.8 3.7zm-1.7-46l3.5 43.9 41.9-3.4-3.5-43.9-41.9 3.4zm45.6 42.5l-3.8-47.8 47.8-3.8 3.8 47.8-47.8 3.8zm-1.7-46l3.5 43.9 43.9-3.5-3.5-43.9-43.9 3.5zm47.5 42.3l-3.8-47.8 47.8-3.8 3.8 47.8-47.8 3.8zm-1.7-46l3.5 43.9 43.9-3.5-3.5-43.9-43.9 3.5zm47.6 42.3l-3.8-47.8 45.9-3.7 3.8 47.8-45.9 3.7zm-1.7-46l3.5 43.9 41.9-3.4-3.5-43.9-41.9 3.4zm45.5 42.5l-3.8-47.8 47.8-3.8 3.8 47.8-47.8 3.8zm-1.7-46l3.5 43.9 43.9-3.5-3.5-43.9-43.9 3.5zm47.6 42.3l-3.8-47.8 45.9-3.7 3.8 47.8-45.9 3.7zm-1.7-46l3.5 43.9 41.9-3.4-3.5-43.9-41.9 3.4zm45.5 42.5l-3.8-47.8 47.8-3.8 3.8 47.8-47.8 3.8zm-1.7-46.1l3.5 43.9 43.9-3.5-3.5-43.9-43.9 3.5zm47.6 42.4l-3.8-47.8 47.8-3.8 3.8 47.8-47.8 3.8zm-1.7-46l3.5 43.9 43.9-3.5-3.5-43.9-43.9 3.5zm47.5 42.3l-3.8-47.8 45.9-3.7 3.8 47.8-45.9 3.7zm-1.7-46l3.5 43.9 41.9-3.4-3.5-43.9-41.9 3.4zm45.6 42.5l-3.8-47.8 47.8-3.8 3.8 47.8-47.8 3.8zm-1.7-46.1l3.5 43.9 43.9-3.5-3.5-43.9-43.9 3.5zm47.6 42.4l-3.8-47.8 47.8-3.8 3.8 47.8-47.8 3.8zm-1.7-46l3.5 43.9 43.9-3.5-3.5-43.9-43.9 3.5zm47.5 42.3l-3.8-47.8 45.9-3.7 3.8 47.8-45.9 3.7zm-1.7-46l3.5 43.9 41.9-3.4-3.5-43.9-41.9 3.4zm45.6 42.4l-3.8-47.8 47.8-3.8 3.8 47.8-47.8 3.8zm-1.7-46l3.5 43.9 43.9-3.5-3.5-43.9-43.9 3.5zm47.5 42.4l-3.8-47.8 47.8-3.8 3.8 47.8-47.8 3.8zm-1.7-46.1l3.5 43.9 43.9-3.5-3.5-43.9-43.9 3.5zm47.6 42.4l-3.8-47.8 45.9-3.7 3.8 47.8-45.9 3.7zm-1.7-46l3.5 43.9 41.9-3.4-3.5-43.9-41.9 3.4zm45.5 42.4l-3.8-47.8 47.8-3.8 3.8 47.8-47.8 3.8zm-1.7-46l3.5 43.9 43.9-3.5-3.5-43.9-43.9 3.5zm47.6 42.3l-3.8-47.8 47.8-3.8m-45.7 5.6l3.5 43.9 43.9-3.5-3.5-43.9-43.9 3.5zm47.5 42.4l-3.8-47.9m2.1 1.9-1531.5 167.3l3.7 45.9m-2.1-1.9l-3.4-41.9m3.5 43.9l-3.7-45.9 45.9-3.7 3.7 45.9-45.9 3.7zm-1.5-44l3.4 41.9 41.9-3.4-3.4-41.9-41.9 3.4zm45.4 40.5l-3.7-45.9 47.8-3.8 3.7 45.9-47.8 3.8zm-1.6-44l3.4 41.9 43.9-3.5-3.4-41.9-43.9 3.5zm47.4 40.3l-3.7-45.9 47.8-3.8 3.7 45.9-47.8 3.8zm-1.5-44l3.4 41.9 43.9-3.5-3.4-41.9-43.9 3.5zm47.4 40.3l-3.7-45.9 45.9-3.7 3.7 45.9-45.9 3.7zm-1.6-44l3.4 41.9 41.9-3.4-3.4-41.9-41.9 3.4zm45.4 40.5l-3.7-45.9 47.8-3.8 3.7 45.9-47.8 3.8zm-1.5-44l3.4 41.9 43.9-3.5-3.4-41.9-43.9 3.5zm47.4 40.3l-3.7-45.9 47.8-3.8 3.7 45.9-47.8 3.8zm-1.5-44l3.4 41.9 43.9-3.5-3.4-41.9-43.9 3.5zm47.3 40.3l-3.7-45.9 45.9-3.7 3.7 45.9-45.9 3.7zm-1.5-44l3.4 41.9 41.9-3.4-3.4-41.9-41.9 3.4zm45.4 40.5l-3.7-45.9 47.8-3.8 3.7 45.9-47.8 3.8zm-1.5-44l3.4 41.9 43.9-3.5-3.4-41.9-43.9 3.5zm47.4 40.3l-3.7-45.9 47.8-3.8 3.7 45.9-47.8 3.8zm-1.6-44l3.4 41.8 43.9-3.5-3.4-41.9-43.9 3.6zm47.4 40.3l-3.7-45.9 45.9-3.7 3.7 45.9-45.9 3.7zm-1.5-44l3.4 41.9 41.9-3.4-3.4-41.9-41.9 3.4zm45.4 40.5l-3.7-45.9 47.8-3.8 3.7 45.9-47.8 3.8zm-1.6-44l3.4 41.9 43.9-3.5-3.4-41.9-43.9 3.5zm47.4 40.3l-3.7-45.9 45.9-3.7 3.7 45.9-45.9 3.7zm-1.5-44l3.4 41.9 41.9-3.4-3.4-41.9-41.9 3.4zm45.4 40.5l-3.7-45.9 47.8-3.8 3.7 45.9-47.8 3.8zm-1.6-44.1l3.4 41.9 43.9-3.5-3.4-41.9-43.9 3.5zm47.4 40.4l-3.7-45.9 47.8-3.8 3.7 45.9-47.8 3.8zm-1.5-44.1l3.4 41.9 43.9-3.5-3.4-41.9-43.9 3.5zm47.4 40.4l-3.7-45.9 45.9-3.7 3.7 45.9-45.9 3.7zm-1.6-44l3.4 41.9 41.9-3.4-3.4-41.9-41.9 3.4zm45.4 40.5l-3.7-45.9 47.8-3.8 3.8 45.8-47.9 3.9zm-1.5-44.1l3.4 41.9 43.9-3.5-3.4-41.9-43.9 3.5zm47.4 40.4l-3.7-45.9 47.8-3.8 3.7 45.9-47.8 3.8zm-1.5-44.1l3.4 41.9 43.9-3.5-3.4-41.9-43.9 3.5zm47.3 40.4l-3.7-45.9 45.9-3.7 3.7 45.9-45.9 3.7zm-1.5-44l3.4 41.9 41.9-3.4-3.4-41.9-41.9 3.4zm45.4 40.4l-3.7-45.9 47.8-3.8 3.7 45.9-47.8 3.8zm-1.5-44l3.4 41.9 43.9-3.5-3.4-41.9-43.9 3.5zm47.3 40.4l-3.7-45.9 47.8-3.8 3.7 45.9-47.8 3.8zm-1.5-44.1l3.4 41.9 43.9-3.5-3.4-41.9-43.9 3.5zm47.4 40.4l-3.7-45.9 45.9-3.7 3.7 45.9-45.9 3.7zm-1.5-44.1l3.4 41.9 41.9-3.4-3.4-41.9-41.9 3.4zm45.4 40.5l-3.7-45.9 47.8-3.8 3.7 45.9-47.8 3.8zm-1.6-44l3.4 41.9 43.9-3.5-3.4-41.9-43.9 3.5zm47.4 40.3l-3.7-45.9 45.9-3.7 3.7 45.9-45.9 3.7zm-1.5-44l3.4 41.9 41.9-3.4-3.4-41.9-41.9 3.4zm45.4 40.5l-3.7-45.9 47.8-3.8 3.7 45.9-47.8 3.8zm-1.6-44l3.4 41.9 43.9-3.5-3.4-41.9-43.9 3.5zm47.4 40.3l-3.7-45.9 47.8-3.8 3.7 45.9-47.8 3.8zm-1.5-44l3.4 41.9 43.9-3.5-3.4-41.9-43.9 3.5zm47.4 40.3l-3.7-45.9 45.9-3.7 3.7 45.9-45.9 3.7zm-1.6-44l3.4 41.9 41.9-3.4-3.4-41.9-41.9 3.4zm45.4 40.5l-3.7-45.9 47.8-3.8 3.7 45.9-47.8 3.8zm-1.5-44l3.4 41.9 43.9-3.5-3.4-41.9-43.9 3.5zm47.4 40.3l-3.7-45.9 47.8-3.8 3.7 45.9-47.8 3.8zm-1.6-44l3.4 41.9 43.9-3.5-3.4-41.9-43.9 3.5zm47.4 40.3l-3.7-45.9 45.9-3.7 3.7 45.9-45.9 3.7zm-1.5-44l3.4 41.9 41.9-3.4-3.4-41.9-41.9 3.4zm45.4 40.5l-3.7-45.9 47.8-3.8 3.7 45.9-47.8 3.8zm-1.5-44l3.4 41.9 43.9-3.5-3.4-41.9-43.9 3.5zm47.3 40.3l-3.7-45.9 47.8-3.8 3.7 45.9-47.8 3.8zm-1.5-44l3.4 41.9 43.9-3.5-3.4-41.9-43.9 3.5zm47.4 40.3l-3.7-45.9 45.9-3.7 3.7 45.9-45.9 3.7zm-1.5-44l3.4 41.9 41.9-3.4-3.4-41.9-41.9 3.4zm45.4 40.5l-3.7-45.9 47.8-3.8 3.7 45.9-47.8 3.8zm-1.6-44l3.4 41.9 43.9-3.5-3.4-41.9-43.9 3.5zm47.4 40.3l-3.7-45.9m46-1.6l-43.9 3.5 3.4 41.9m40.4-47.4-1529.5 167.2-1.9 2.1-.1-2l45.9-3.7m-1.9 2.2l-41.9 3.4m41.7-5.4l47.8-3.8m-1.8 2.1l-43.9 3.5m43.8-5.5l47.8-3.8m-1.8 2.1l-43.9 3.5m43.7-5.5l45.9-3.7m-1.9 2.2l-41.9 3.4m41.8-5.4l47.8-3.8m1.7 46l-3.5-43.9-43.9 3.5m43.7-5.5l47.8-3.8 3.9 47.8m-49.5-42.2l3.5 43.9 43.9-3.5-3.5-43.9-43.9 3.5zm47.5 42.4l-3.9-47.8 45.9-3.7 3.9 47.8-45.9 3.7zm-1.7-46l3.5 43.9 41.9-3.4-3.5-43.9-41.9 3.4zm45.6 42.4l-3.9-47.8 47.9-3.9 3.9 47.8-47.9 3.9zm-1.7-46l3.5 43.9 43.9-3.5-3.5-43.9-43.9 3.5zm47.5 42.3l-3.8-47.8 47.8-3.8 3.9 47.8-47.9 3.8zm-1.7-46l3.5 43.9 43.9-3.5-3.5-43.9-43.9 3.5zm47.6 42.4l-3.9-47.8 45.9-3.7 3.9 47.8-45.9 3.7zm-1.7-46.1l3.5 43.9 41.9-3.4-3.5-43.9-41.9 3.4zm45.6 42.5l-3.9-47.8 47.8-3.8 3.9 47.8-47.8 3.8zm-1.7-46l3.5 43.9 43.9-3.5-3.5-43.9-43.9 3.5zm47.5 42.3l-3.9-47.8 45.9-3.7 3.9 47.8-45.9 3.7zm-1.7-46l3.5 43.9 41.9-3.4-3.5-43.9-41.9 3.4zm45.6 42.5l-3.9-47.8 47.8-3.8 3.9 47.8-47.8 3.8zm-1.7-46l3.5 43.9 43.9-3.5-3.5-43.9-43.9 3.5zm47.5 42.3l-3.9-47.8 47.8-3.8 3.9 47.8-47.8 3.8zm-1.7-46l3.5 43.9 43.9-3.5-3.5-43.9-43.9 3.5zm47.6 42.3l-3.9-47.8 45.9-3.7 3.9 47.8-45.9 3.7zm-1.7-46l3.5 43.9 41.9-3.4-3.5-43.9-41.9 3.4zm45.5 42.5l-3.9-47.8 47.8-3.8 3.9 47.8-47.8 3.8zm-1.7-46l3.5 43.9 43.9-3.5-3.5-43.9-43.9 3.5zm47.6 42.3l-3.9-47.8 47.8-3.8 3.9 47.8-47.8 3.8zm-1.7-46l3.5 43.9 43.9-3.5-3.5-43.9-43.9 3.5zm47.5 42.3l-3.9-47.8 45.9-3.7 3.8 47.8-45.8 3.7zm-1.7-46l3.5 43.9 41.9-3.4-3.5-43.9-41.9 3.4zm45.6 42.5l-3.8-47.8 47.8-3.8 3.8 47.8-47.8 3.8zm-1.7-46l3.5 43.9 43.9-3.5-3.5-43.9-43.9 3.5zm47.5 42.3l-3.8-47.8 47.8-3.8 3.8 47.8-47.8 3.8zm-1.7-46l3.5 43.9 43.9-3.5-3.5-43.9-43.9 3.5zm47.6 42.3l-3.8-47.8 45.9-3.7 3.8 47.8-45.9 3.7zm-1.7-46l3.5 43.9 41.9-3.4-3.5-43.9-41.9 3.4zm45.5 42.5l-3.8-47.8 47.8-3.8 3.8 47.8-47.8 3.8zm-1.6-46l3.5 43.9 43.9-3.5-3.5-43.9-43.9 3.5zm47.5 42.3l-3.8-47.8 45.9-3.7 3.8 47.8-45.9 3.7zm-1.7-46l3.5 43.9 41.9-3.4-3.5-43.9-41.9 3.4zm45.6 42.5l-3.8-47.8 47.8-3.8 3.8 47.8-47.8 3.8zm-1.7-46l3.5 43.9 43.9-3.5-3.5-43.9-43.9 3.5zm47.5 42.3l-3.8-47.8 47.8-3.8 3.8 47.8-47.8 3.8zm-1.7-46l3.5 43.9 43.9-3.5-3.5-43.9-43.9 3.5zm47.6 42.3l-3.8-47.8 45.9-3.7 3.8 47.8-45.9 3.7zm-1.7-46l3.5 43.9 41.9-3.4-3.5-43.9-41.9 3.4zm45.5 42.5l-3.8-47.8 47.8-3.8 3.8 47.8-47.8 3.8zm-1.7-46l3.5 43.9 43.9-3.5-3.5-43.9-43.9 3.5zm47.6 42.3l-3.8-47.8 47.8-3.8 3.8 47.8-47.8 3.8zm-1.7-46l3.5 43.9 43.9-3.5-3.5-43.9-43.9 3.5zm47.5 42.3l-3.8-47.8 45.9-3.7 3.8 47.8-45.9 3.7zm-1.7-46l3.5 43.9 41.9-3.4-3.5-43.9-41.9 3.4zm45.6 42.5l-3.8-47.8 47.8-3.8 3.8 47.8-47.8 3.8zm-1.7-46.1l3.5 43.9 43.9-3.5-3.5-43.9-43.9 3.5zm47.5 42.4l-3.8-47.8 47.8-3.8 3.8 47.8-47.8 3.8zm-1.7-46l3.5 43.9 43.9-3.5-3.5-43.9-43.9 3.5zm47.6 42.3l-3.8-47.8 45.9-3.7 3.8 47.8-45.9 3.7zm-1.7-46l3.5 43.9 41.9-3.4-3.5-43.9-41.9 3.4zm45.5 42.5l-3.8-47.8 47.8-3.8 3.8 47.8-47.8 3.8zm-1.7-46.1l3.5 43.9 43.9-3.5-3.5-43.9-43.9 3.5zm47.6 42.4l-3.8-47.8m2.1 1.7l3.5 43.9m-1263.9 101.7-2 .2l47.8-3.8m-1.8 2.1-.1-2l45.9-3.7m-1.9 2.1l-41.9 3.4m41.7-5.4l47.8-3.8m-1.8 2.1l-43.8 3.6m43.7-5.5l47.8-3.8m-1.8 2.1l-43.9 3.5m43.7-5.5l45.9-3.7m-1.8 2.1l-41.9 3.4m41.7-5.4l47.8-3.8m-1.8 2.1l-43.9 3.5m43.7-5.5l45.9-3.7m-1.8 2.2l-41.9 3.4m41.7-5.4l47.8-3.8m-1.8 2.1l-43.9 3.5m43.8-5.5l47.8-3.8m-1.8 2.1l-43.9 3.5m43.7-5.5l45.9-3.7m-1.9 2.2l-41.9 3.4m41.8-5.4l47.8-3.8m-1.8 2.1l-43.9 3.5m43.7-5.5l47.8-3.8m-1.8 2.1l-43.9 3.5m43.8-5.5l45.9-3.7m1.6 46.1l-3.5-43.9-41.9 3.4m41.7-5.4l47.8-3.8 3.8 47.8m-49.4-42.2l3.5 43.9 43.9-3.5-3.5-43.9-43.9 3.5zm47.5 42.4l-3.8-47.8 47.8-3.8 3.8 47.8-47.8 3.8zm-1.7-46.1l3.5 43.9 43.9-3.5-3.5-43.9-43.9 3.5zm47.6 42.4l-3.8-47.8 45.9-3.7 3.8 47.8-45.9 3.7zm-1.7-46l3.5 43.9 41.9-3.4-3.5-43.9-41.9 3.4zm45.5 42.4l-3.8-47.8 47.8-3.8 3.8 47.8-47.8 3.8zm-1.7-46l3.5 43.9 43.9-3.5-3.5-43.9-43.9 3.5zm47.6 42.4l-3.8-47.8 45.9-3.7 3.8 47.8-45.9 3.7zm-1.7-46.1l3.5 43.9 41.9-3.4-3.5-43.9-41.9 3.4zm45.5 42.5l-3.8-47.8 47.8-3.8 3.8 47.8-47.8 3.8zm-1.6-46l3.5 43.9 43.9-3.5-3.5-43.9-43.9 3.5zm47.5 42.3l-3.8-47.8 47.8-3.8 3.8 47.8-47.8 3.8zm-1.7-46l3.5 43.9 43.9-3.5-3.5-43.9-43.9 3.5zm47.6 42.3l-3.8-47.8 45.9-3.7 3.8 47.8-45.9 3.7zm-1.7-46l3.5 43.9 41.9-3.4-3.5-43.9-41.9 3.4zm45.5 42.5l-3.8-47.8 47.8-3.8 3.8 47.8-47.8 3.8zm-1.7-46l3.5 43.9 43.9-3.5-3.5-43.9-43.9 3.5zm47.6 42.3l-3.8-47.8 47.8-3.8 3.8 47.8-47.8 3.8zm-1.7-46l3.5 43.9 43.9-3.5-3.5-43.9-43.9 3.5zm47.5 42.3l-3.8-47.8 45.9-3.7 3.8 47.8-45.9 3.7zm-1.7-46l3.5 43.9 41.9-3.4-3.5-43.9-41.9 3.4zm45.6 42.5l-3.8-47.8 47.8-3.8 3.8 47.8-47.8 3.8zm-1.7-46l3.5 43.9 43.9-3.5-3.5-43.9-43.9 3.5zm47.5 42.3l-3.8-47.8 47.8-3.8 3.8 47.8-47.8 3.8zm-1.7-46l3.5 43.9 43.9-3.5-3.5-43.9-43.9 3.5zm47.6 42.3l-3.8-47.8 45.9-3.7 3.8 47.8-45.9 3.7zm-1.7-46l3.5 43.9 41.9-3.4-3.5-43.9-41.9 3.4zm45.5 42.5l-3.8-47.8 47.8-3.8 3.8 47.8-47.8 3.8zm-1.7-46l3.5 43.9 43.9-3.5-3.5-43.9-43.9 3.5zm47.6 42.3l-3.8-47.8m2.1 1.8l3.5 43.9m-677.8 54.5-2 .2l47.8-3.8m-1.8 2.1-.1-2l47.8-3.8m-1.8 2.1l-43.9 3.5m43.7-5.5l45.9-3.7m-1.9 2.1l-41.9 3.4m41.8-5.4l47.8-3.8m-1.8 2.2l-43.9 3.5m43.7-5.5l45.9-3.7m-1.9 2.1l-41.9 3.4m41.8-5.4l47.8-3.8m-1.8 2.1l-43.9 3.5m43.7-5.5l47.8-3.8m-1.7 2.1l-43.9 3.5m43.7-5.4l45.9-3.7m-1.9 2.1l-41.9 3.4m41.7-5.4l47.8-3.8m-1.7 2.1l-43.9 3.5m43.7-5.5l47.8-3.8m-1.8 2.1l-43.9 3.5m43.8-5.5l45.9-3.7m-1.9 2.2l-41.9 3.4m41.7-5.4l47.8-3.8m1.6 44l-3.4-41.9-43.9 3.5m43.8-5.5l47.8-3.8 3.7 45.9m-49.4-40.2l3.4 41.9 43.9-3.5-3.4-41.9-43.9 3.5zm47.4 40.3l-3.7-45.9 45.9-3.7 3.7 45.9-45.9 3.7zm-1.5-44l3.4 41.9 41.9-3.4-3.4-41.9-41.9 3.4zm45.4 40.5l-3.7-45.9 47.8-3.8 3.7 45.9-47.8 3.8zm-1.6-44.1l3.4 41.9 43.9-3.5-3.4-41.9-43.9 3.5zm47.4 40.4l-3.7-45.9m2.2 1.9l3.4 41.9m-135.6 10.8-2 .2l47.8-3.8m-1.8 2.1-.2-2l45.9-3.7m-1.8 2.2l-41.9 3.4m41.7-5.4l47.8-3.8m-1.8 2.1l-43.9 3.5m43.8-5.5 2.1 1.8"/></svg>